#N canvas 636 196 1092 696 12;
#X obj 145 450 tabread4~ grainArray;
#X obj 145 407 line~;
#X msg 145 364 \$1 \, \$2 \$3;
#X obj 151 308 pack f f f;
#X obj 145 239 t f f;
#X floatatom 145 197 8 0 0 0 - - - 0;
#X obj 182 274 +;
#X obj 228 240 * 44.1;
#X floatatom 227 218 5 0 0 0 - - - 0;
#X obj 354 308 loadbang;
#X obj 354 308 samplerate~;
#X obj 354 351 / 1000;
#X obj 228 197 r grain_dur;
#X obj 127 20 inlet;
#X obj 145 536 outlet~;
#X obj 649 175 t b b;
#X obj 649 218 del 50;
#X msg 706 196 1;
#X msg 649 247 0;
#X obj 649 304 line~;
#X obj 706 110 r grain_dur;
#X obj 649 274 pack f 50;
#X obj 295 43 r quick;
#X obj 201 110 t f b, f 59;
#X msg 37 37;
#X obj 705 155 - 50;
#X obj 145 494 *~, f 81;
#X connect 0 0 26 0;
#X connect 1 0 0 0;
#X connect 2 0 1 0;
#X connect 3 0 2 0;
#X connect 4 0 3 0;
#X connect 4 1 6 0;
#X connect 5 0 4 0;
#X connect 6 0 3 1;
#X connect 7 0 6 1;
#X connect 8 0 7 0;
#X connect 8 0 3 2;
#X connect 9 0 10 0;
#X connect 10 0 11 0;
#X connect 11 0 7 1;
#X connect 12 0 8 0;
#X connect 13 0 23 0;
#X connect 15 0 16 0;
#X connect 15 1 17 0;
#X connect 16 0 18 0;
#X connect 17 0 21 0;
#X connect 18 0 21 0;
#X connect 19 0 26 1;
#X connect 20 0 25 0;
#X connect 21 0 19 0;
#X connect 23 0 5 0;
#X connect 23 1 15 0;
#X connect 25 0 16 1;
#X connect 26 0 14 0;
