#N canvas 0 38 686 998 12;
#X obj 526 242 array define grainArray;
#X obj 526 168 soundfiler;
#X floatatom 526 204 14 0 0 0 - - - 0;
#X msg 525 119 read -resize LarsBSommer.wav grainArray;
#X msg 773 314 0 \, 1.53022e+06 0;
#X obj 395 752 dac~;
#X obj 585 494 s grain_dur;
#X floatatom 583 421 5 0 0 0 - - - 0;
#X msg 361 304 50000;
#X msg 438 351 0;
#X obj 389 665 *~ 0.5;
#X obj 643 363;
#X msg 446 565 next \$1;
#X obj 389 639 clone GrainySubber 16;
#X connect 1 0 2 0;
#X connect 3 0 1 0;
#X connect 7 0 6 0;
#X connect 8 0 12 0;
#X connect 9 0 12 0;
#X connect 10 0 5 0;
#X connect 10 0 5 1;
#X connect 12 0 13 0;
#X connect 13 0 10 0;
