#N canvas 701 0 1196 1076 12;
#X obj 427 644 oscformat;
#X msg 443 687 connect 127.0.0.1 5005;
#X obj 430 728 netsend -u -b;
#X obj 427 242 bng 19 250 50 0 empty empty empty 0 -10 0 12 #fcfcfc #000000 #000000;
#X obj 420 174 metro 200;
#X obj 439 290 tgl 19 0 empty empty empty 0 -10 0 12 #fcfcfc #000000 #000000 0 1;
#X msg 375 128 1;
#X msg 434 347 set snare \, \$1;
#X obj 701 258 bng 19 250 50 0 empty empty empty 0 -10 0 12 #fcfcfc #000000 #000000;
#X obj 713 306 tgl 19 0 empty empty empty 0 -10 0 12 #fcfcfc #000000 #000000 0 1;
#X msg 649 144 1;
#X msg 710 365 set kick \, \$1;
#X obj 694 190 metro 600;
#X connect 0 0 2 0;
#X connect 1 0 2 0;
#X connect 3 0 5 0;
#X connect 4 0 3 0;
#X connect 5 0 7 0;
#X connect 6 0 4 0;
#X connect 7 0 0 0;
#X connect 8 0 9 0;
#X connect 9 0 11 0;
#X connect 10 0 12 0;
#X connect 11 0 0 0;
#X connect 12 0 8 0;
