#N canvas 720 38 994 639 12;
#X floatatom 20 99 18 0 0 0 - - - 0;
#X obj 20 122 t f f;
#X obj 23 282 pack f f f;
#X obj 55 243 +;
#X floatatom 154 216 5 0 0 0 - - - 0;
#X obj 154 246 * 44.1;
#X obj 304 155 loadbang;
#X obj 305 184 samplerate~;
#X obj 305 209 / 1000;
#X obj 153 185 r grainDuration;
#X obj 20 14 inlet;
#X obj 20 40 t f b, f 111;
#X obj 793 89 t b b;
#X msg 859 122 1;
#X msg 794 148 0;
#X obj 796 329 line~;
#X obj 19 403 line~;
#X obj 19 600 outlet~;
#X obj 157 532 outlet~;
#X obj 860 61 r grainDuration;
#X obj 156 504 *~, f 89;
#X obj 19 571 *~, f 112;
#X msg 25 350 \$1 \, \$2 \$3;
#X obj 860 83 - 50;
#X obj 793 120 del 50;
#X obj 793 176 pack f 50;
#X floatatom 834 248 5 0 0 0 - - - 0;
#X obj 19 476 tabread4~ channelL;
#X obj 206 477 tabread4~ channelR;
#X connect 0 0 1 0;
#X connect 1 0 2 0;
#X connect 1 1 3 0;
#X connect 2 0 22 0;
#X connect 3 0 2 1;
#X connect 4 0 5 0;
#X connect 4 0 2 2;
#X connect 5 0 3 1;
#X connect 6 0 7 0;
#X connect 7 0 8 0;
#X connect 8 0 5 1;
#X connect 9 0 4 0;
#X connect 10 0 11 0;
#X connect 11 0 0 0;
#X connect 11 1 12 0;
#X connect 12 0 24 0;
#X connect 12 1 13 0;
#X connect 13 0 25 0;
#X connect 14 0 25 0;
#X connect 15 0 20 1;
#X connect 15 0 21 1;
#X connect 16 0 27 0;
#X connect 16 0 28 0;
#X connect 19 0 23 0;
#X connect 20 0 18 0;
#X connect 21 0 17 0;
#X connect 22 0 16 0;
#X connect 23 0 24 1;
#X connect 24 0 14 0;
#X connect 25 0 15 0;
#X connect 25 0 26 0;
#X connect 27 0 21 0;
#X connect 28 0 20 0;
