#N struct 1006-scope float x float y float x1 float y1 float c1 float c2 float c3 float c4 array vector-min 1006-scope-element array vector-max 1006-scope-element float curx;
#N struct 1006-scope-element float y;
#N canvas 46 44 732 782 12;
#X obj 83 44 ys.granular_main \$1;
#X obj 297 677 dac~;
#X obj 358 620 *~;
#X obj 431 602 hsl 162 19 0 1 0 0 empty empty empty -2 -10 0 12 #fcfcfc #000000 #000000 0 1;
#N canvas 518 38 1083 747 OSCcontrol 1;
#X obj 27 53 tgl 16 0 empty empty RecordToggle 0 -8 0 10 #fcfcfc #000000 #000000 0 1;
#X obj 27 75 s \$1-record;
#X obj 26 191 s \$1-sample_offset;
#X obj 29 166 hsl 136 16 0 1 0 0 empty empty SamplePosition -2 -8 0 10 #fcfcfc #000000 #000000 0 1;
#X obj 28 500 s \$1-reverse;
#X obj 28 476 tgl 16 0 empty empty ReverseToggle 0 -8 0 10 #fcfcfc #000000 #000000 0 1;
#X obj 125 499 s \$1-reverse_random;
#X obj 125 469 tgl 16 0 empty empty ReverseRandomToggle 0 -8 0 10 #fcfcfc #000000 #000000 0 1;
#X obj 25 337 s \$1-grain_pitch;
#X obj 28 306 hsl 136 16 0 1 0 0 empty empty PitchSlider -2 -8 0 10 #fcfcfc #000000 #000000 0 1;
#X obj 186 317 bng 16 250 50 0 empty empty empty 0 -8 0 10 #fcfcfc #000000 #000000;
#X obj 186 338 s \$1-reset_pitch;
#X obj 307 316 hsl 136 16 0 1 0 0 empty empty RandomPitchSlider -2 -8 0 10 #fcfcfc #000000 #000000 0 1;
#X obj 304 337 s \$1-random_pitch;
#X obj 189 194 s \$1-offset_random;
#X obj 192 167 hsl 136 16 0 1 0 0 empty empty RandomSamplePositionSlider -2 -8 0 10 #fcfcfc #000000 #000000 0 1;
#X obj 29 652 s \$1-grain_size;
#X obj 32 627 hsl 136 16 0.001 1 0 0 empty empty GrainSizeSlider -2 -8 0 10 #fcfcfc #000000 #000000 0 1;
#X obj 197 656 s \$1-grain_density;
#X obj 200 629 hsl 136 16 0.002 1 0 0 empty empty GrainDensitySlider -2 -8 0 10 #fcfcfc #000000 #000000 0 1;
#X obj 402 656 s \$1-grainplay_chance;
#X obj 405 627 hsl 136 16 0 1 0 0 empty empty GrainPlayChanceSlider -2 -8 0 10 #fcfcfc #000000 #000000 0 1;
#X obj 175 74 s \$1-on_off;
#X obj 175 50 tgl 16 0 empty empty PlayToggle 0 -8 0 10 #fcfcfc #000000 #000000 0 1;
#X obj 316 76 s \$1-autoplay_on_off;
#X obj 316 49 tgl 16 0 empty empty PlayThroughSampleToggle 0 -8 0 10 #fcfcfc #000000 #000000 0 1;
#X obj 478 75 s \$1-autoplay_speed;
#X obj 481 52 hsl 136 16 0 127 0 0 empty empty PlaySpeedSlider -2 -8 0 10 #fcfcfc #000000 #000000 0 1;
#X obj 661 76 s \$1-freeze;
#X obj 661 50 tgl 16 0 empty empty FreezeSampleToggle 0 -8 0 10 #fcfcfc #000000 #000000 0 1;
#X connect 0 0 1 0;
#X connect 3 0 2 0;
#X connect 5 0 4 0;
#X connect 7 0 6 0;
#X connect 9 0 8 0;
#X connect 10 0 11 0;
#X connect 12 0 13 0;
#X connect 15 0 14 0;
#X connect 17 0 16 0;
#X connect 19 0 18 0;
#X connect 21 0 20 0;
#X connect 23 0 22 0;
#X connect 25 0 24 0;
#X connect 27 0 26 0;
#X connect 29 0 28 0;
#X restore 566 222 pd OSCcontrol;
#X connect 0 0 2 0;
#X connect 0 1 2 0;
#X connect 2 0 1 0;
#X connect 2 0 1 1;
#X connect 3 0 2 1;
