#N canvas 144 117 1281 850 12;
#N canvas 142 55 1587 994 python-receive 0;
#X obj 239 228 netreceive -u -b;
#X msg 239 165 listen 0;
#X msg 239 207 listen 5006;
#X text 300 165 (listen 0 to close);
#X obj 239 186 loadbang;
#X text 321 206 <- bang to start listening;
#X obj 239 254 oscparse;
#X obj 239 286 list trim;
#X obj 235 326 outlet;
#X connect 0 0 6 0;
#X connect 1 0 0 0;
#X connect 2 0 0 0;
#X connect 4 0 2 0;
#X connect 6 0 7 0;
#X connect 7 0 8 0;
#X restore 628 443 pd python-receive;
#X text 664 411 General OSC;
#N canvas 49 49 1907 1069 landmark1 0;
#X floatatom 264 261 5 0 0 2 x-value - - 0;
#X floatatom 321 263 5 0 0 2 y-value - - 0;
#X floatatom 384 267 5 0 0 2 z-value - - 0;
#X obj 280 202 unpack f f f;
#X obj 275 75 inlet;
#X obj 248 312 outlet;
#X obj 318 319 outlet;
#X obj 379 314 outlet;
#X obj 267 131 route landmark1;
#X connect 0 0 5 0;
#X connect 1 0 6 0;
#X connect 2 0 7 0;
#X connect 3 0 0 0;
#X connect 3 1 1 0;
#X connect 3 2 2 0;
#X connect 4 0 8 0;
#X connect 8 0 3 0;
#X restore 201 207 pd landmark1;
#N canvas 49 49 1907 1069 landmark2 0;
#X floatatom 275 185 5 0 0 2 x-value - - 0;
#X floatatom 332 187 5 0 0 2 y-value - - 0;
#X floatatom 395 191 5 0 0 2 z-value - - 0;
#X obj 291 126 unpack f f f;
#X obj 276 43 inlet;
#X obj 259 236 outlet;
#X obj 329 243 outlet;
#X obj 390 238 outlet;
#X obj 286 83 route landmark2;
#X connect 0 0 5 0;
#X connect 1 0 6 0;
#X connect 2 0 7 0;
#X connect 3 0 0 0;
#X connect 3 1 1 0;
#X connect 3 2 2 0;
#X connect 4 0 8 0;
#X connect 8 0 3 0;
#X restore 200 235 pd landmark2;
#N canvas 49 49 1907 1069 landmark3 0;
#X floatatom 268 249 5 0 0 2 x-value - - 0;
#X floatatom 325 251 5 0 0 2 y-value - - 0;
#X floatatom 388 255 5 0 0 2 z-value - - 0;
#X obj 284 190 unpack f f f;
#X obj 275 75 inlet;
#X obj 252 300 outlet;
#X obj 322 307 outlet;
#X obj 383 302 outlet;
#X obj 275 136 route landmark3;
#X connect 0 0 5 0;
#X connect 1 0 6 0;
#X connect 2 0 7 0;
#X connect 3 0 0 0;
#X connect 3 1 1 0;
#X connect 3 2 2 0;
#X connect 4 0 8 0;
#X connect 8 0 3 0;
#X restore 202 267 pd landmark3;
#N canvas 49 49 1907 1069 landmark4 0;
#X floatatom 261 257 5 0 0 2 x-value - - 0;
#X floatatom 318 259 5 0 0 2 y-value - - 0;
#X floatatom 381 263 5 0 0 2 z-value - - 0;
#X obj 277 198 unpack f f f;
#X obj 275 75 inlet;
#X obj 245 308 outlet;
#X obj 315 315 outlet;
#X obj 376 310 outlet;
#X obj 269 136 route landmark4;
#X connect 0 0 5 0;
#X connect 1 0 6 0;
#X connect 2 0 7 0;
#X connect 3 0 0 0;
#X connect 3 1 1 0;
#X connect 3 2 2 0;
#X connect 4 0 8 0;
#X connect 8 0 3 0;
#X restore 199 306 pd landmark4;
#N canvas 49 49 1907 1069 landmark5 0;
#X floatatom 260 253 5 0 0 2 x-value - - 0;
#X floatatom 317 255 5 0 0 2 y-value - - 0;
#X floatatom 380 259 5 0 0 2 z-value - - 0;
#X obj 276 194 unpack f f f;
#X obj 275 75 inlet;
#X obj 244 304 outlet;
#X obj 314 311 outlet;
#X obj 375 306 outlet;
#X obj 256 129 route landmark5;
#X connect 0 0 5 0;
#X connect 1 0 6 0;
#X connect 2 0 7 0;
#X connect 3 0 0 0;
#X connect 3 1 1 0;
#X connect 3 2 2 0;
#X connect 4 0 8 0;
#X connect 8 0 3 0;
#X restore 36 370 pd landmark5;
#N canvas 49 49 1907 1069 landmark6 0;
#X floatatom 249 243 5 0 0 2 x-value - - 0;
#X floatatom 306 245 5 0 0 2 y-value - - 0;
#X floatatom 369 249 5 0 0 2 z-value - - 0;
#X obj 265 184 unpack f f f;
#X obj 275 75 inlet;
#X obj 233 294 outlet;
#X obj 303 301 outlet;
#X obj 364 296 outlet;
#X obj 266 130 route landmark6;
#X connect 0 0 5 0;
#X connect 1 0 6 0;
#X connect 2 0 7 0;
#X connect 3 0 0 0;
#X connect 3 1 1 0;
#X connect 3 2 2 0;
#X connect 4 0 8 0;
#X connect 8 0 3 0;
#X restore 40 401 pd landmark6;
#N canvas 49 49 1907 1069 landmark7 0;
#X floatatom 262 257 5 0 0 2 x-value - - 0;
#X floatatom 319 259 5 0 0 2 y-value - - 0;
#X floatatom 382 263 5 0 0 2 z-value - - 0;
#X obj 278 198 unpack f f f;
#X obj 275 75 inlet;
#X obj 246 308 outlet;
#X obj 316 315 outlet;
#X obj 377 310 outlet;
#X obj 270 126 route landmark7;
#X connect 0 0 5 0;
#X connect 1 0 6 0;
#X connect 2 0 7 0;
#X connect 3 0 0 0;
#X connect 3 1 1 0;
#X connect 3 2 2 0;
#X connect 4 0 8 0;
#X connect 8 0 3 0;
#X restore 39 434 pd landmark7;
#N canvas 49 49 1907 1069 landmark8 0;
#X floatatom 263 317 5 0 0 2 x-value - - 0;
#X floatatom 320 319 5 0 0 2 y-value - - 0;
#X floatatom 383 323 5 0 0 2 z-value - - 0;
#X obj 279 258 unpack f f f;
#X obj 275 75 inlet;
#X obj 247 368 outlet;
#X obj 317 375 outlet;
#X obj 378 370 outlet;
#X obj 270 166 route landmark8;
#X connect 0 0 5 0;
#X connect 1 0 6 0;
#X connect 2 0 7 0;
#X connect 3 0 0 0;
#X connect 3 1 1 0;
#X connect 3 2 2 0;
#X connect 4 0 8 0;
#X connect 8 0 3 0;
#X restore 43 470 pd landmark8;
#N canvas 49 49 1907 1069 landmark9 0;
#X floatatom 249 358 5 0 0 2 x-value - - 0;
#X floatatom 306 360 5 0 0 2 y-value - - 0;
#X floatatom 369 364 5 0 0 2 z-value - - 0;
#X obj 265 299 unpack f f f;
#X obj 275 75 inlet;
#X obj 233 409 outlet;
#X obj 303 416 outlet;
#X obj 364 411 outlet;
#X obj 286 178 route landmark9;
#X connect 0 0 5 0;
#X connect 1 0 6 0;
#X connect 2 0 7 0;
#X connect 3 0 0 0;
#X connect 3 1 1 0;
#X connect 3 2 2 0;
#X connect 4 0 8 0;
#X connect 8 0 3 0;
#X restore 211 568 pd landmark9;
#N canvas 49 49 1907 1069 landmark10 0;
#X floatatom 266 261 5 0 0 2 x-value - - 0;
#X floatatom 323 263 5 0 0 2 y-value - - 0;
#X floatatom 386 267 5 0 0 2 z-value - - 0;
#X obj 282 202 unpack f f f;
#X obj 275 75 inlet;
#X obj 250 312 outlet;
#X obj 320 319 outlet;
#X obj 381 314 outlet;
#X obj 284 136 route landmark10;
#X connect 0 0 5 0;
#X connect 1 0 6 0;
#X connect 2 0 7 0;
#X connect 3 0 0 0;
#X connect 3 1 1 0;
#X connect 3 2 2 0;
#X connect 4 0 8 0;
#X connect 8 0 3 0;
#X restore 212 597 pd landmark10;
#N canvas 49 49 1907 1069 landmark11 0;
#X floatatom 256 338 5 0 0 2 x-value - - 0;
#X floatatom 313 340 5 0 0 2 y-value - - 0;
#X floatatom 376 344 5 0 0 2 z-value - - 0;
#X obj 272 279 unpack f f f;
#X obj 275 75 inlet;
#X obj 240 389 outlet;
#X obj 310 396 outlet;
#X obj 371 391 outlet;
#X obj 282 182 route landmark11;
#X connect 0 0 5 0;
#X connect 1 0 6 0;
#X connect 2 0 7 0;
#X connect 3 0 0 0;
#X connect 3 1 1 0;
#X connect 3 2 2 0;
#X connect 4 0 8 0;
#X connect 8 0 3 0;
#X restore 213 631 pd landmark11;
#N canvas 49 49 1907 1069 landmark12 0;
#X floatatom 221 346 5 0 0 2 x-value - - 0;
#X floatatom 278 348 5 0 0 2 y-value - - 0;
#X floatatom 341 352 5 0 0 2 z-value - - 0;
#X obj 237 287 unpack f f f;
#X obj 275 75 inlet;
#X obj 205 397 outlet;
#X obj 275 404 outlet;
#X obj 336 399 outlet;
#X obj 258 159 route landmark12;
#X connect 0 0 5 0;
#X connect 1 0 6 0;
#X connect 2 0 7 0;
#X connect 3 0 0 0;
#X connect 3 1 1 0;
#X connect 3 2 2 0;
#X connect 4 0 8 0;
#X connect 8 0 3 0;
#X restore 212 659 pd landmark12;
#N canvas 49 49 1907 1069 landmark13 0;
#X floatatom 260 332 5 0 0 2 x-value - - 0;
#X floatatom 317 334 5 0 0 2 y-value - - 0;
#X floatatom 380 338 5 0 0 2 z-value - - 0;
#X obj 276 273 unpack f f f;
#X obj 275 75 inlet;
#X obj 244 383 outlet;
#X obj 314 390 outlet;
#X obj 375 385 outlet;
#X obj 280 178 route landmark13;
#X connect 0 0 5 0;
#X connect 1 0 6 0;
#X connect 2 0 7 0;
#X connect 3 0 0 0;
#X connect 3 1 1 0;
#X connect 3 2 2 0;
#X connect 4 0 8 0;
#X connect 8 0 3 0;
#X restore 197 373 pd landmark13;
#N canvas 49 49 1907 1069 landmark14 0;
#X floatatom 262 349 5 0 0 2 x-value - - 0;
#X floatatom 319 351 5 0 0 2 y-value - - 0;
#X floatatom 382 355 5 0 0 2 z-value - - 0;
#X obj 278 290 unpack f f f;
#X obj 275 75 inlet;
#X obj 246 400 outlet;
#X obj 316 407 outlet;
#X obj 377 402 outlet;
#X obj 269 169 route landmark14;
#X connect 0 0 5 0;
#X connect 1 0 6 0;
#X connect 2 0 7 0;
#X connect 3 0 0 0;
#X connect 3 1 1 0;
#X connect 3 2 2 0;
#X connect 4 0 8 0;
#X connect 8 0 3 0;
#X restore 201 403 pd landmark14;
#N canvas 49 49 1907 1069 landmark15 0;
#X floatatom 268 294 5 0 0 2 x-value - - 0;
#X floatatom 325 296 5 0 0 2 y-value - - 0;
#X floatatom 388 300 5 0 0 2 z-value - - 0;
#X obj 284 235 unpack f f f;
#X obj 275 75 inlet;
#X obj 252 345 outlet;
#X obj 322 352 outlet;
#X obj 383 347 outlet;
#X obj 275 161 route landmark15;
#X connect 0 0 5 0;
#X connect 1 0 6 0;
#X connect 2 0 7 0;
#X connect 3 0 0 0;
#X connect 3 1 1 0;
#X connect 3 2 2 0;
#X connect 4 0 8 0;
#X connect 8 0 3 0;
#X restore 205 431 pd landmark15;
#N canvas 49 49 1907 1069 landmark16 0;
#X floatatom 268 335 5 0 0 2 x-value - - 0;
#X floatatom 325 337 5 0 0 2 y-value - - 0;
#X floatatom 388 341 5 0 0 2 z-value - - 0;
#X obj 284 276 unpack f f f;
#X obj 275 75 inlet;
#X obj 252 386 outlet;
#X obj 322 393 outlet;
#X obj 383 388 outlet;
#X obj 286 169 route landmark16;
#X connect 0 0 5 0;
#X connect 1 0 6 0;
#X connect 2 0 7 0;
#X connect 3 0 0 0;
#X connect 3 1 1 0;
#X connect 3 2 2 0;
#X connect 4 0 8 0;
#X connect 8 0 3 0;
#X restore 209 465 pd landmark16;
#N canvas 0 38 322 441 landmark17 0;
#X floatatom 59 276 5 0 0 2 x-value - - 0;
#X floatatom 116 278 5 0 0 2 y-value - - 0;
#X floatatom 179 282 5 0 0 2 z-value - - 0;
#X obj 75 217 unpack f f f;
#X obj 64 43 inlet;
#X obj 43 327 outlet;
#X obj 113 334 outlet;
#X obj 174 329 outlet;
#X obj 67 127 route landmark17;
#X connect 0 0 5 0;
#X connect 1 0 6 0;
#X connect 2 0 7 0;
#X connect 3 0 0 0;
#X connect 3 1 1 0;
#X connect 3 2 2 0;
#X connect 4 0 8 0;
#X connect 8 0 3 0;
#X restore 39 562 pd landmark17;
#N canvas 49 49 1907 1069 landmark18 0;
#X floatatom 259 373 5 0 0 2 x-value - - 0;
#X floatatom 316 375 5 0 0 2 y-value - - 0;
#X floatatom 379 379 5 0 0 2 z-value - - 0;
#X obj 275 314 unpack f f f;
#X obj 275 75 inlet;
#X obj 243 424 outlet;
#X obj 313 431 outlet;
#X obj 374 426 outlet;
#X obj 271 201 route landmark18;
#X connect 0 0 5 0;
#X connect 1 0 6 0;
#X connect 2 0 7 0;
#X connect 3 0 0 0;
#X connect 3 1 1 0;
#X connect 3 2 2 0;
#X connect 4 0 8 0;
#X connect 8 0 3 0;
#X restore 33 596 pd landmark18;
#N canvas 49 49 1907 1069 landmark19 0;
#X floatatom 261 279 5 0 0 2 x-value - - 0;
#X floatatom 318 281 5 0 0 2 y-value - - 0;
#X floatatom 381 285 5 0 0 2 z-value - - 0;
#X obj 277 220 unpack f f f;
#X obj 275 75 inlet;
#X obj 245 330 outlet;
#X obj 315 337 outlet;
#X obj 376 332 outlet;
#X obj 279 144 route landmark19;
#X connect 0 0 5 0;
#X connect 1 0 6 0;
#X connect 2 0 7 0;
#X connect 3 0 0 0;
#X connect 3 1 1 0;
#X connect 3 2 2 0;
#X connect 4 0 8 0;
#X connect 8 0 3 0;
#X restore 38 631 pd landmark19;
#N canvas 49 49 1907 1069 landmark20 0;
#X floatatom 258 336 5 0 0 2 x-value - - 0;
#X floatatom 315 338 5 0 0 2 y-value - - 0;
#X floatatom 378 342 5 0 0 2 z-value - - 0;
#X obj 274 277 unpack f f f;
#X obj 275 75 inlet;
#X obj 242 387 outlet;
#X obj 312 394 outlet;
#X obj 373 389 outlet;
#X obj 283 171 route landmark20;
#X connect 0 0 5 0;
#X connect 1 0 6 0;
#X connect 2 0 7 0;
#X connect 3 0 0 0;
#X connect 3 1 1 0;
#X connect 3 2 2 0;
#X connect 4 0 8 0;
#X connect 8 0 3 0;
#X restore 33 668 pd landmark20;
#N canvas 600 416 1054 596 landmark0 0;
#X floatatom 265 289 5 0 0 2 x-value - - 0;
#X floatatom 322 291 5 0 0 2 y-value - - 0;
#X floatatom 385 295 5 0 0 2 z-value - - 0;
#X obj 281 230 unpack f f f;
#X obj 275 75 inlet;
#X obj 249 340 outlet;
#X obj 319 347 outlet;
#X obj 380 342 outlet;
#X obj 275 157 route landmark0;
#X connect 0 0 5 0;
#X connect 1 0 6 0;
#X connect 2 0 7 0;
#X connect 3 0 0 0;
#X connect 3 1 1 0;
#X connect 3 2 2 0;
#X connect 4 0 8 0;
#X connect 8 0 3 0;
#X restore 33 208 pd landmark0;
#X text 47 178 wrist;
#X text 246 108 LEFT;
#X text 216 170 thumb;
#X text 52 339 index;
#X text 214 345 middle;
#X text 61 533 ring;
#X text 227 535 pinky;
#X floatatom 62 124 5 0 0 0 - - - 0;
#X obj 480 448 route Left;
#N canvas 49 49 1907 1069 landmark1 0;
#X floatatom 264 261 5 0 0 2 x-value - - 0;
#X floatatom 321 263 5 0 0 2 y-value - - 0;
#X floatatom 384 267 5 0 0 2 z-value - - 0;
#X obj 280 202 unpack f f f;
#X obj 275 75 inlet;
#X obj 248 312 outlet;
#X obj 318 319 outlet;
#X obj 379 314 outlet;
#X obj 267 131 route landmark1;
#X connect 0 0 5 0;
#X connect 1 0 6 0;
#X connect 2 0 7 0;
#X connect 3 0 0 0;
#X connect 3 1 1 0;
#X connect 3 2 2 0;
#X connect 4 0 8 0;
#X connect 8 0 3 0;
#X restore 1179 222 pd landmark1;
#N canvas 49 49 1907 1069 landmark2 0;
#X floatatom 275 185 5 0 0 2 x-value - - 0;
#X floatatom 332 187 5 0 0 2 y-value - - 0;
#X floatatom 395 191 5 0 0 2 z-value - - 0;
#X obj 291 126 unpack f f f;
#X obj 276 43 inlet;
#X obj 259 236 outlet;
#X obj 329 243 outlet;
#X obj 390 238 outlet;
#X obj 286 83 route landmark2;
#X connect 0 0 5 0;
#X connect 1 0 6 0;
#X connect 2 0 7 0;
#X connect 3 0 0 0;
#X connect 3 1 1 0;
#X connect 3 2 2 0;
#X connect 4 0 8 0;
#X connect 8 0 3 0;
#X restore 1178 250 pd landmark2;
#N canvas 49 49 1907 1069 landmark3 0;
#X floatatom 268 249 5 0 0 2 x-value - - 0;
#X floatatom 325 251 5 0 0 2 y-value - - 0;
#X floatatom 388 255 5 0 0 2 z-value - - 0;
#X obj 284 190 unpack f f f;
#X obj 275 75 inlet;
#X obj 252 300 outlet;
#X obj 322 307 outlet;
#X obj 383 302 outlet;
#X obj 275 136 route landmark3;
#X connect 0 0 5 0;
#X connect 1 0 6 0;
#X connect 2 0 7 0;
#X connect 3 0 0 0;
#X connect 3 1 1 0;
#X connect 3 2 2 0;
#X connect 4 0 8 0;
#X connect 8 0 3 0;
#X restore 1180 282 pd landmark3;
#N canvas 49 49 1907 1069 landmark4 0;
#X floatatom 261 257 5 0 0 2 x-value - - 0;
#X floatatom 318 259 5 0 0 2 y-value - - 0;
#X floatatom 381 263 5 0 0 2 z-value - - 0;
#X obj 277 198 unpack f f f;
#X obj 275 75 inlet;
#X obj 245 308 outlet;
#X obj 315 315 outlet;
#X obj 376 310 outlet;
#X obj 269 136 route landmark4;
#X connect 0 0 5 0;
#X connect 1 0 6 0;
#X connect 2 0 7 0;
#X connect 3 0 0 0;
#X connect 3 1 1 0;
#X connect 3 2 2 0;
#X connect 4 0 8 0;
#X connect 8 0 3 0;
#X restore 1177 321 pd landmark4;
#N canvas 49 49 1907 1069 landmark5 0;
#X floatatom 260 253 5 0 0 2 x-value - - 0;
#X floatatom 317 255 5 0 0 2 y-value - - 0;
#X floatatom 380 259 5 0 0 2 z-value - - 0;
#X obj 276 194 unpack f f f;
#X obj 275 75 inlet;
#X obj 244 304 outlet;
#X obj 314 311 outlet;
#X obj 375 306 outlet;
#X obj 256 129 route landmark5;
#X connect 0 0 5 0;
#X connect 1 0 6 0;
#X connect 2 0 7 0;
#X connect 3 0 0 0;
#X connect 3 1 1 0;
#X connect 3 2 2 0;
#X connect 4 0 8 0;
#X connect 8 0 3 0;
#X restore 1014 385 pd landmark5;
#N canvas 49 49 1907 1069 landmark6 0;
#X floatatom 249 243 5 0 0 2 x-value - - 0;
#X floatatom 306 245 5 0 0 2 y-value - - 0;
#X floatatom 369 249 5 0 0 2 z-value - - 0;
#X obj 265 184 unpack f f f;
#X obj 275 75 inlet;
#X obj 233 294 outlet;
#X obj 303 301 outlet;
#X obj 364 296 outlet;
#X obj 266 130 route landmark6;
#X connect 0 0 5 0;
#X connect 1 0 6 0;
#X connect 2 0 7 0;
#X connect 3 0 0 0;
#X connect 3 1 1 0;
#X connect 3 2 2 0;
#X connect 4 0 8 0;
#X connect 8 0 3 0;
#X restore 1018 416 pd landmark6;
#N canvas 49 49 1907 1069 landmark7 0;
#X floatatom 262 257 5 0 0 2 x-value - - 0;
#X floatatom 319 259 5 0 0 2 y-value - - 0;
#X floatatom 382 263 5 0 0 2 z-value - - 0;
#X obj 278 198 unpack f f f;
#X obj 275 75 inlet;
#X obj 246 308 outlet;
#X obj 316 315 outlet;
#X obj 377 310 outlet;
#X obj 270 126 route landmark7;
#X connect 0 0 5 0;
#X connect 1 0 6 0;
#X connect 2 0 7 0;
#X connect 3 0 0 0;
#X connect 3 1 1 0;
#X connect 3 2 2 0;
#X connect 4 0 8 0;
#X connect 8 0 3 0;
#X restore 1017 449 pd landmark7;
#N canvas 49 49 1907 1069 landmark8 0;
#X floatatom 263 317 5 0 0 2 x-value - - 0;
#X floatatom 320 319 5 0 0 2 y-value - - 0;
#X floatatom 383 323 5 0 0 2 z-value - - 0;
#X obj 279 258 unpack f f f;
#X obj 275 75 inlet;
#X obj 247 368 outlet;
#X obj 317 375 outlet;
#X obj 378 370 outlet;
#X obj 270 166 route landmark8;
#X connect 0 0 5 0;
#X connect 1 0 6 0;
#X connect 2 0 7 0;
#X connect 3 0 0 0;
#X connect 3 1 1 0;
#X connect 3 2 2 0;
#X connect 4 0 8 0;
#X connect 8 0 3 0;
#X restore 1021 485 pd landmark8;
#N canvas 49 49 1907 1069 landmark9 0;
#X floatatom 249 358 5 0 0 2 x-value - - 0;
#X floatatom 306 360 5 0 0 2 y-value - - 0;
#X floatatom 369 364 5 0 0 2 z-value - - 0;
#X obj 265 299 unpack f f f;
#X obj 275 75 inlet;
#X obj 233 409 outlet;
#X obj 303 416 outlet;
#X obj 364 411 outlet;
#X obj 286 178 route landmark9;
#X connect 0 0 5 0;
#X connect 1 0 6 0;
#X connect 2 0 7 0;
#X connect 3 0 0 0;
#X connect 3 1 1 0;
#X connect 3 2 2 0;
#X connect 4 0 8 0;
#X connect 8 0 3 0;
#X restore 1189 583 pd landmark9;
#N canvas 49 49 1907 1069 landmark10 0;
#X floatatom 266 261 5 0 0 2 x-value - - 0;
#X floatatom 323 263 5 0 0 2 y-value - - 0;
#X floatatom 386 267 5 0 0 2 z-value - - 0;
#X obj 282 202 unpack f f f;
#X obj 275 75 inlet;
#X obj 250 312 outlet;
#X obj 320 319 outlet;
#X obj 381 314 outlet;
#X obj 284 136 route landmark10;
#X connect 0 0 5 0;
#X connect 1 0 6 0;
#X connect 2 0 7 0;
#X connect 3 0 0 0;
#X connect 3 1 1 0;
#X connect 3 2 2 0;
#X connect 4 0 8 0;
#X connect 8 0 3 0;
#X restore 1190 612 pd landmark10;
#N canvas 49 49 1907 1069 landmark11 0;
#X floatatom 256 338 5 0 0 2 x-value - - 0;
#X floatatom 313 340 5 0 0 2 y-value - - 0;
#X floatatom 376 344 5 0 0 2 z-value - - 0;
#X obj 272 279 unpack f f f;
#X obj 275 75 inlet;
#X obj 240 389 outlet;
#X obj 310 396 outlet;
#X obj 371 391 outlet;
#X obj 282 182 route landmark11;
#X connect 0 0 5 0;
#X connect 1 0 6 0;
#X connect 2 0 7 0;
#X connect 3 0 0 0;
#X connect 3 1 1 0;
#X connect 3 2 2 0;
#X connect 4 0 8 0;
#X connect 8 0 3 0;
#X restore 1191 646 pd landmark11;
#N canvas 49 49 1907 1069 landmark12 0;
#X floatatom 221 346 5 0 0 2 x-value - - 0;
#X floatatom 278 348 5 0 0 2 y-value - - 0;
#X floatatom 341 352 5 0 0 2 z-value - - 0;
#X obj 237 287 unpack f f f;
#X obj 275 75 inlet;
#X obj 205 397 outlet;
#X obj 275 404 outlet;
#X obj 336 399 outlet;
#X obj 258 159 route landmark12;
#X connect 0 0 5 0;
#X connect 1 0 6 0;
#X connect 2 0 7 0;
#X connect 3 0 0 0;
#X connect 3 1 1 0;
#X connect 3 2 2 0;
#X connect 4 0 8 0;
#X connect 8 0 3 0;
#X restore 1190 674 pd landmark12;
#N canvas 49 49 1907 1069 landmark13 0;
#X floatatom 260 332 5 0 0 2 x-value - - 0;
#X floatatom 317 334 5 0 0 2 y-value - - 0;
#X floatatom 380 338 5 0 0 2 z-value - - 0;
#X obj 276 273 unpack f f f;
#X obj 275 75 inlet;
#X obj 244 383 outlet;
#X obj 314 390 outlet;
#X obj 375 385 outlet;
#X obj 280 178 route landmark13;
#X connect 0 0 5 0;
#X connect 1 0 6 0;
#X connect 2 0 7 0;
#X connect 3 0 0 0;
#X connect 3 1 1 0;
#X connect 3 2 2 0;
#X connect 4 0 8 0;
#X connect 8 0 3 0;
#X restore 1175 388 pd landmark13;
#N canvas 49 49 1907 1069 landmark14 0;
#X floatatom 262 349 5 0 0 2 x-value - - 0;
#X floatatom 319 351 5 0 0 2 y-value - - 0;
#X floatatom 382 355 5 0 0 2 z-value - - 0;
#X obj 278 290 unpack f f f;
#X obj 275 75 inlet;
#X obj 246 400 outlet;
#X obj 316 407 outlet;
#X obj 377 402 outlet;
#X obj 269 169 route landmark14;
#X connect 0 0 5 0;
#X connect 1 0 6 0;
#X connect 2 0 7 0;
#X connect 3 0 0 0;
#X connect 3 1 1 0;
#X connect 3 2 2 0;
#X connect 4 0 8 0;
#X connect 8 0 3 0;
#X restore 1179 418 pd landmark14;
#N canvas 49 49 1907 1069 landmark15 0;
#X floatatom 268 294 5 0 0 2 x-value - - 0;
#X floatatom 325 296 5 0 0 2 y-value - - 0;
#X floatatom 388 300 5 0 0 2 z-value - - 0;
#X obj 284 235 unpack f f f;
#X obj 275 75 inlet;
#X obj 252 345 outlet;
#X obj 322 352 outlet;
#X obj 383 347 outlet;
#X obj 275 161 route landmark15;
#X connect 0 0 5 0;
#X connect 1 0 6 0;
#X connect 2 0 7 0;
#X connect 3 0 0 0;
#X connect 3 1 1 0;
#X connect 3 2 2 0;
#X connect 4 0 8 0;
#X connect 8 0 3 0;
#X restore 1183 446 pd landmark15;
#N canvas 49 49 1907 1069 landmark16 0;
#X floatatom 268 335 5 0 0 2 x-value - - 0;
#X floatatom 325 337 5 0 0 2 y-value - - 0;
#X floatatom 388 341 5 0 0 2 z-value - - 0;
#X obj 284 276 unpack f f f;
#X obj 275 75 inlet;
#X obj 252 386 outlet;
#X obj 322 393 outlet;
#X obj 383 388 outlet;
#X obj 286 169 route landmark16;
#X connect 0 0 5 0;
#X connect 1 0 6 0;
#X connect 2 0 7 0;
#X connect 3 0 0 0;
#X connect 3 1 1 0;
#X connect 3 2 2 0;
#X connect 4 0 8 0;
#X connect 8 0 3 0;
#X restore 1187 480 pd landmark16;
#N canvas 0 38 322 441 landmark17 0;
#X floatatom 59 276 5 0 0 2 x-value - - 0;
#X floatatom 116 278 5 0 0 2 y-value - - 0;
#X floatatom 179 282 5 0 0 2 z-value - - 0;
#X obj 75 217 unpack f f f;
#X obj 64 43 inlet;
#X obj 43 327 outlet;
#X obj 113 334 outlet;
#X obj 174 329 outlet;
#X obj 67 127 route landmark17;
#X connect 0 0 5 0;
#X connect 1 0 6 0;
#X connect 2 0 7 0;
#X connect 3 0 0 0;
#X connect 3 1 1 0;
#X connect 3 2 2 0;
#X connect 4 0 8 0;
#X connect 8 0 3 0;
#X restore 1017 577 pd landmark17;
#N canvas 49 49 1907 1069 landmark18 0;
#X floatatom 259 373 5 0 0 2 x-value - - 0;
#X floatatom 316 375 5 0 0 2 y-value - - 0;
#X floatatom 379 379 5 0 0 2 z-value - - 0;
#X obj 275 314 unpack f f f;
#X obj 275 75 inlet;
#X obj 243 424 outlet;
#X obj 313 431 outlet;
#X obj 374 426 outlet;
#X obj 271 201 route landmark18;
#X connect 0 0 5 0;
#X connect 1 0 6 0;
#X connect 2 0 7 0;
#X connect 3 0 0 0;
#X connect 3 1 1 0;
#X connect 3 2 2 0;
#X connect 4 0 8 0;
#X connect 8 0 3 0;
#X restore 1011 611 pd landmark18;
#N canvas 49 49 1907 1069 landmark19 0;
#X floatatom 261 279 5 0 0 2 x-value - - 0;
#X floatatom 318 281 5 0 0 2 y-value - - 0;
#X floatatom 381 285 5 0 0 2 z-value - - 0;
#X obj 277 220 unpack f f f;
#X obj 275 75 inlet;
#X obj 245 330 outlet;
#X obj 315 337 outlet;
#X obj 376 332 outlet;
#X obj 279 144 route landmark19;
#X connect 0 0 5 0;
#X connect 1 0 6 0;
#X connect 2 0 7 0;
#X connect 3 0 0 0;
#X connect 3 1 1 0;
#X connect 3 2 2 0;
#X connect 4 0 8 0;
#X connect 8 0 3 0;
#X restore 1016 646 pd landmark19;
#N canvas 49 49 1907 1069 landmark20 0;
#X floatatom 258 336 5 0 0 2 x-value - - 0;
#X floatatom 315 338 5 0 0 2 y-value - - 0;
#X floatatom 378 342 5 0 0 2 z-value - - 0;
#X obj 274 277 unpack f f f;
#X obj 275 75 inlet;
#X obj 242 387 outlet;
#X obj 312 394 outlet;
#X obj 373 389 outlet;
#X obj 283 171 route landmark20;
#X connect 0 0 5 0;
#X connect 1 0 6 0;
#X connect 2 0 7 0;
#X connect 3 0 0 0;
#X connect 3 1 1 0;
#X connect 3 2 2 0;
#X connect 4 0 8 0;
#X connect 8 0 3 0;
#X restore 1011 683 pd landmark20;
#N canvas 600 416 1054 596 landmark0 0;
#X floatatom 265 289 5 0 0 2 x-value - - 0;
#X floatatom 322 291 5 0 0 2 y-value - - 0;
#X floatatom 385 295 5 0 0 2 z-value - - 0;
#X obj 281 230 unpack f f f;
#X obj 275 75 inlet;
#X obj 249 340 outlet;
#X obj 319 347 outlet;
#X obj 380 342 outlet;
#X obj 275 157 route landmark0;
#X connect 0 0 5 0;
#X connect 1 0 6 0;
#X connect 2 0 7 0;
#X connect 3 0 0 0;
#X connect 3 1 1 0;
#X connect 3 2 2 0;
#X connect 4 0 8 0;
#X connect 8 0 3 0;
#X restore 1011 223 pd landmark0;
#X text 1025 193 wrist;
#X text 1194 185 thumb;
#X text 1030 354 index;
#X text 1192 360 middle;
#X text 1039 548 ring;
#X text 1205 550 pinky;
#X floatatom 1040 139 5 0 0 0 - - - 0;
#X text 1116 126 RIGHT;
#X obj 888 450 route Right;
#X text 558 548 Send receive objects bedre end dragge måske?;
#X text 57 22 Each finger is split into 4 points from the base to the tip. They are in reverse order here \, so for thumb as example \, landmark1 is the base of the thumb \, while landmark 4 is the tip of the thumb.;
#N canvas 130 130 415 290 thumb 0;
#X obj 77 135 route relation;
#X obj 77 77 inlet;
#X obj 79 193 outlet;
#X connect 0 0 2 0;
#X connect 1 0 0 0;
#X restore 366 216 pd thumb index relation;
#N canvas 156 156 524 371 midpoint-distance 0;
#X obj 113 117 route midpoint-distance;
#X obj 107 66 inlet;
#X obj 105 223 outlet;
#X connect 0 0 2 0;
#X connect 1 0 0 0;
#X restore 620 311 pd midpoint-distance;
#N canvas 130 130 415 290 thumb 0;
#X obj 77 135 route relation;
#X obj 77 77 inlet;
#X obj 79 193 outlet;
#X connect 0 0 2 0;
#X connect 1 0 0 0;
#X restore 820 229 pd thumb index relation;
#X floatatom 819 165 5 0 0 0 - - - 0;
#X floatatom 402 166 5 0 0 0 - - - 0;
#X floatatom 669 247 5 0 0 0 - - - 0;
#X obj 677 143 int;
#X obj 675 199 + 0.499;
#X floatatom 703 103 5 0 0 0 - - - 0;
#X obj 735 54 tgl 19 0 empty empty empty 0 -10 0 12 #fcfcfc #000000 #000000 0 1;
#X connect 0 0 31 0;
#X connect 0 0 61 0;
#X connect 0 0 65 0;
#X connect 22 0 30 0;
#X connect 31 0 17 0;
#X connect 31 0 22 0;
#X connect 31 0 21 0;
#X connect 31 0 20 0;
#X connect 31 0 19 0;
#X connect 31 0 18 0;
#X connect 31 0 16 0;
#X connect 31 0 15 0;
#X connect 31 0 14 0;
#X connect 31 0 13 0;
#X connect 31 0 12 0;
#X connect 31 0 11 0;
#X connect 31 0 10 0;
#X connect 31 0 9 0;
#X connect 31 0 8 0;
#X connect 31 0 7 0;
#X connect 31 0 6 0;
#X connect 31 0 5 0;
#X connect 31 0 4 0;
#X connect 31 0 3 0;
#X connect 31 0 2 0;
#X connect 31 0 64 0;
#X connect 52 0 59 0;
#X connect 61 0 36 0;
#X connect 61 0 52 0;
#X connect 61 0 51 0;
#X connect 61 0 50 0;
#X connect 61 0 49 0;
#X connect 61 0 48 0;
#X connect 61 0 47 0;
#X connect 61 0 46 0;
#X connect 61 0 45 0;
#X connect 61 0 44 0;
#X connect 61 0 43 0;
#X connect 61 0 42 0;
#X connect 61 0 41 0;
#X connect 61 0 40 0;
#X connect 61 0 39 0;
#X connect 61 0 38 0;
#X connect 61 0 37 0;
#X connect 61 0 35 0;
#X connect 61 0 34 0;
#X connect 61 0 33 0;
#X connect 61 0 32 0;
#X connect 61 0 66 0;
#X connect 64 0 68 0;
#X connect 65 0 69 0;
#X connect 66 0 67 0;
#X connect 69 0 71 0;
#X connect 70 0 72 0;
#X connect 71 0 70 0;
#X connect 72 0 73 0;
