#N canvas 588 170 1029 835 12;
#N canvas 49 49 1907 1069 landmark1 0;
#X floatatom 264 261 5 0 0 2 x-value - - 0;
#X floatatom 321 263 5 0 0 2 y-value - - 0;
#X floatatom 384 267 5 0 0 2 z-value - - 0;
#X obj 280 202 unpack f f f;
#X obj 275 75 inlet;
#X obj 248 312 outlet;
#X obj 318 319 outlet;
#X obj 379 314 outlet;
#X obj 267 131 route landmark1;
#X connect 0 0 5 0;
#X connect 1 0 6 0;
#X connect 2 0 7 0;
#X connect 3 0 0 0;
#X connect 3 1 1 0;
#X connect 3 2 2 0;
#X connect 4 0 8 0;
#X connect 8 0 3 0;
#X restore 551 200 pd landmark1;
#N canvas 49 49 1907 1069 landmark2 0;
#X floatatom 275 185 5 0 0 2 x-value - - 0;
#X floatatom 332 187 5 0 0 2 y-value - - 0;
#X floatatom 395 191 5 0 0 2 z-value - - 0;
#X obj 291 126 unpack f f f;
#X obj 276 43 inlet;
#X obj 259 236 outlet;
#X obj 329 243 outlet;
#X obj 390 238 outlet;
#X obj 286 83 route landmark2;
#X connect 0 0 5 0;
#X connect 1 0 6 0;
#X connect 2 0 7 0;
#X connect 3 0 0 0;
#X connect 3 1 1 0;
#X connect 3 2 2 0;
#X connect 4 0 8 0;
#X connect 8 0 3 0;
#X restore 646 200 pd landmark2;
#N canvas 49 49 1907 1069 landmark3 0;
#X floatatom 268 249 5 0 0 2 x-value - - 0;
#X floatatom 325 251 5 0 0 2 y-value - - 0;
#X floatatom 388 255 5 0 0 2 z-value - - 0;
#X obj 284 190 unpack f f f;
#X obj 275 75 inlet;
#X obj 252 300 outlet;
#X obj 322 307 outlet;
#X obj 383 302 outlet;
#X obj 275 136 route landmark3;
#X connect 0 0 5 0;
#X connect 1 0 6 0;
#X connect 2 0 7 0;
#X connect 3 0 0 0;
#X connect 3 1 1 0;
#X connect 3 2 2 0;
#X connect 4 0 8 0;
#X connect 8 0 3 0;
#X restore 741 198 pd landmark3;
#N canvas 49 49 1907 1069 landmark4 0;
#X floatatom 261 257 5 0 0 2 x-value - - 0;
#X floatatom 318 259 5 0 0 2 y-value - - 0;
#X floatatom 381 263 5 0 0 2 z-value - - 0;
#X obj 277 198 unpack f f f;
#X obj 275 75 inlet;
#X obj 245 308 outlet;
#X obj 315 315 outlet;
#X obj 376 310 outlet;
#X obj 269 136 route landmark4;
#X connect 0 0 5 0;
#X connect 1 0 6 0;
#X connect 2 0 7 0;
#X connect 3 0 0 0;
#X connect 3 1 1 0;
#X connect 3 2 2 0;
#X connect 4 0 8 0;
#X connect 8 0 3 0;
#X restore 540 277 pd landmark4;
#N canvas 49 49 1907 1069 landmark5 0;
#X floatatom 260 253 5 0 0 2 x-value - - 0;
#X floatatom 317 255 5 0 0 2 y-value - - 0;
#X floatatom 380 259 5 0 0 2 z-value - - 0;
#X obj 276 194 unpack f f f;
#X obj 275 75 inlet;
#X obj 244 304 outlet;
#X obj 314 311 outlet;
#X obj 375 306 outlet;
#X obj 256 129 route landmark5;
#X connect 0 0 5 0;
#X connect 1 0 6 0;
#X connect 2 0 7 0;
#X connect 3 0 0 0;
#X connect 3 1 1 0;
#X connect 3 2 2 0;
#X connect 4 0 8 0;
#X connect 8 0 3 0;
#X restore 637 277 pd landmark5;
#N canvas 49 49 1907 1069 landmark6 0;
#X floatatom 249 243 5 0 0 2 x-value - - 0;
#X floatatom 306 245 5 0 0 2 y-value - - 0;
#X floatatom 369 249 5 0 0 2 z-value - - 0;
#X obj 265 184 unpack f f f;
#X obj 275 75 inlet;
#X obj 233 294 outlet;
#X obj 303 301 outlet;
#X obj 364 296 outlet;
#X obj 266 130 route landmark6;
#X connect 0 0 5 0;
#X connect 1 0 6 0;
#X connect 2 0 7 0;
#X connect 3 0 0 0;
#X connect 3 1 1 0;
#X connect 3 2 2 0;
#X connect 4 0 8 0;
#X connect 8 0 3 0;
#X restore 729 279 pd landmark6;
#N canvas 49 49 1907 1069 landmark7 0;
#X floatatom 262 257 5 0 0 2 x-value - - 0;
#X floatatom 319 259 5 0 0 2 y-value - - 0;
#X floatatom 382 263 5 0 0 2 z-value - - 0;
#X obj 278 198 unpack f f f;
#X obj 275 75 inlet;
#X obj 246 308 outlet;
#X obj 316 315 outlet;
#X obj 377 310 outlet;
#X obj 270 126 route landmark7;
#X connect 0 0 5 0;
#X connect 1 0 6 0;
#X connect 2 0 7 0;
#X connect 3 0 0 0;
#X connect 3 1 1 0;
#X connect 3 2 2 0;
#X connect 4 0 8 0;
#X connect 8 0 3 0;
#X restore 555 349 pd landmark7;
#N canvas 49 49 1907 1069 landmark8 0;
#X floatatom 263 317 5 0 0 2 x-value - - 0;
#X floatatom 320 319 5 0 0 2 y-value - - 0;
#X floatatom 383 323 5 0 0 2 z-value - - 0;
#X obj 279 258 unpack f f f;
#X obj 275 75 inlet;
#X obj 247 368 outlet;
#X obj 317 375 outlet;
#X obj 378 370 outlet;
#X obj 270 166 route landmark8;
#X connect 0 0 5 0;
#X connect 1 0 6 0;
#X connect 2 0 7 0;
#X connect 3 0 0 0;
#X connect 3 1 1 0;
#X connect 3 2 2 0;
#X connect 4 0 8 0;
#X connect 8 0 3 0;
#X restore 657 349 pd landmark8;
#N canvas 49 49 1907 1069 landmark9 0;
#X floatatom 249 358 5 0 0 2 x-value - - 0;
#X floatatom 306 360 5 0 0 2 y-value - - 0;
#X floatatom 369 364 5 0 0 2 z-value - - 0;
#X obj 265 299 unpack f f f;
#X obj 275 75 inlet;
#X obj 233 409 outlet;
#X obj 303 416 outlet;
#X obj 364 411 outlet;
#X obj 286 178 route landmark9;
#X connect 0 0 5 0;
#X connect 1 0 6 0;
#X connect 2 0 7 0;
#X connect 3 0 0 0;
#X connect 3 1 1 0;
#X connect 3 2 2 0;
#X connect 4 0 8 0;
#X connect 8 0 3 0;
#X restore 554 425 pd landmark9;
#N canvas 49 49 1907 1069 landmark10 0;
#X floatatom 266 261 5 0 0 2 x-value - - 0;
#X floatatom 323 263 5 0 0 2 y-value - - 0;
#X floatatom 386 267 5 0 0 2 z-value - - 0;
#X obj 282 202 unpack f f f;
#X obj 275 75 inlet;
#X obj 250 312 outlet;
#X obj 320 319 outlet;
#X obj 381 314 outlet;
#X obj 284 136 route landmark10;
#X connect 0 0 5 0;
#X connect 1 0 6 0;
#X connect 2 0 7 0;
#X connect 3 0 0 0;
#X connect 3 1 1 0;
#X connect 3 2 2 0;
#X connect 4 0 8 0;
#X connect 8 0 3 0;
#X restore 667 426 pd landmark10;
#N canvas 49 49 1907 1069 landmark11 0;
#X floatatom 256 338 5 0 0 2 x-value - - 0;
#X floatatom 313 340 5 0 0 2 y-value - - 0;
#X floatatom 376 344 5 0 0 2 z-value - - 0;
#X obj 272 279 unpack f f f;
#X obj 275 75 inlet;
#X obj 240 389 outlet;
#X obj 310 396 outlet;
#X obj 371 391 outlet;
#X obj 282 182 route landmark11;
#X connect 0 0 5 0;
#X connect 1 0 6 0;
#X connect 2 0 7 0;
#X connect 3 0 0 0;
#X connect 3 1 1 0;
#X connect 3 2 2 0;
#X connect 4 0 8 0;
#X connect 8 0 3 0;
#X restore 539 494 pd landmark11;
#N canvas 49 49 1907 1069 landmark12 0;
#X floatatom 221 346 5 0 0 2 x-value - - 0;
#X floatatom 278 348 5 0 0 2 y-value - - 0;
#X floatatom 341 352 5 0 0 2 z-value - - 0;
#X obj 237 287 unpack f f f;
#X obj 275 75 inlet;
#X obj 205 397 outlet;
#X obj 275 404 outlet;
#X obj 336 399 outlet;
#X obj 258 159 route landmark12;
#X connect 0 0 5 0;
#X connect 1 0 6 0;
#X connect 2 0 7 0;
#X connect 3 0 0 0;
#X connect 3 1 1 0;
#X connect 3 2 2 0;
#X connect 4 0 8 0;
#X connect 8 0 3 0;
#X restore 662 494 pd landmark12;
#N canvas 49 49 1907 1069 landmark13 0;
#X floatatom 260 332 5 0 0 2 x-value - - 0;
#X floatatom 317 334 5 0 0 2 y-value - - 0;
#X floatatom 380 338 5 0 0 2 z-value - - 0;
#X obj 276 273 unpack f f f;
#X obj 275 75 inlet;
#X obj 244 383 outlet;
#X obj 314 390 outlet;
#X obj 375 385 outlet;
#X obj 280 178 route landmark13;
#X connect 0 0 5 0;
#X connect 1 0 6 0;
#X connect 2 0 7 0;
#X connect 3 0 0 0;
#X connect 3 1 1 0;
#X connect 3 2 2 0;
#X connect 4 0 8 0;
#X connect 8 0 3 0;
#X restore 542 555 pd landmark13;
#N canvas 49 49 1907 1069 landmark14 0;
#X floatatom 262 349 5 0 0 2 x-value - - 0;
#X floatatom 319 351 5 0 0 2 y-value - - 0;
#X floatatom 382 355 5 0 0 2 z-value - - 0;
#X obj 278 290 unpack f f f;
#X obj 275 75 inlet;
#X obj 246 400 outlet;
#X obj 316 407 outlet;
#X obj 377 402 outlet;
#X obj 269 169 route landmark14;
#X connect 0 0 5 0;
#X connect 1 0 6 0;
#X connect 2 0 7 0;
#X connect 3 0 0 0;
#X connect 3 1 1 0;
#X connect 3 2 2 0;
#X connect 4 0 8 0;
#X connect 8 0 3 0;
#X restore 664 563 pd landmark14;
#N canvas 49 49 1907 1069 landmark15 0;
#X floatatom 268 294 5 0 0 2 x-value - - 0;
#X floatatom 325 296 5 0 0 2 y-value - - 0;
#X floatatom 388 300 5 0 0 2 z-value - - 0;
#X obj 284 235 unpack f f f;
#X obj 275 75 inlet;
#X obj 252 345 outlet;
#X obj 322 352 outlet;
#X obj 383 347 outlet;
#X obj 275 161 route landmark15;
#X connect 0 0 5 0;
#X connect 1 0 6 0;
#X connect 2 0 7 0;
#X connect 3 0 0 0;
#X connect 3 1 1 0;
#X connect 3 2 2 0;
#X connect 4 0 8 0;
#X connect 8 0 3 0;
#X restore 543 628 pd landmark15;
#N canvas 49 49 1907 1069 landmark16 0;
#X floatatom 268 335 5 0 0 2 x-value - - 0;
#X floatatom 325 337 5 0 0 2 y-value - - 0;
#X floatatom 388 341 5 0 0 2 z-value - - 0;
#X obj 284 276 unpack f f f;
#X obj 275 75 inlet;
#X obj 252 386 outlet;
#X obj 322 393 outlet;
#X obj 383 388 outlet;
#X obj 286 169 route landmark16;
#X connect 0 0 5 0;
#X connect 1 0 6 0;
#X connect 2 0 7 0;
#X connect 3 0 0 0;
#X connect 3 1 1 0;
#X connect 3 2 2 0;
#X connect 4 0 8 0;
#X connect 8 0 3 0;
#X restore 658 630 pd landmark16;
#N canvas 0 38 322 441 landmark17 0;
#X floatatom 59 276 5 0 0 2 x-value - - 0;
#X floatatom 116 278 5 0 0 2 y-value - - 0;
#X floatatom 179 282 5 0 0 2 z-value - - 0;
#X obj 75 217 unpack f f f;
#X obj 64 43 inlet;
#X obj 43 327 outlet;
#X obj 113 334 outlet;
#X obj 174 329 outlet;
#X obj 67 127 route landmark17;
#X connect 0 0 5 0;
#X connect 1 0 6 0;
#X connect 2 0 7 0;
#X connect 3 0 0 0;
#X connect 3 1 1 0;
#X connect 3 2 2 0;
#X connect 4 0 8 0;
#X connect 8 0 3 0;
#X restore 546 705 pd landmark17;
#N canvas 49 49 1907 1069 landmark18 0;
#X floatatom 259 373 5 0 0 2 x-value - - 0;
#X floatatom 316 375 5 0 0 2 y-value - - 0;
#X floatatom 379 379 5 0 0 2 z-value - - 0;
#X obj 275 314 unpack f f f;
#X obj 275 75 inlet;
#X obj 243 424 outlet;
#X obj 313 431 outlet;
#X obj 374 426 outlet;
#X obj 271 201 route landmark18;
#X connect 0 0 5 0;
#X connect 1 0 6 0;
#X connect 2 0 7 0;
#X connect 3 0 0 0;
#X connect 3 1 1 0;
#X connect 3 2 2 0;
#X connect 4 0 8 0;
#X connect 8 0 3 0;
#X restore 649 704 pd landmark18;
#N canvas 49 49 1907 1069 landmark19 0;
#X floatatom 261 279 5 0 0 2 x-value - - 0;
#X floatatom 318 281 5 0 0 2 y-value - - 0;
#X floatatom 381 285 5 0 0 2 z-value - - 0;
#X obj 277 220 unpack f f f;
#X obj 275 75 inlet;
#X obj 245 330 outlet;
#X obj 315 337 outlet;
#X obj 376 332 outlet;
#X obj 279 144 route landmark19;
#X connect 0 0 5 0;
#X connect 1 0 6 0;
#X connect 2 0 7 0;
#X connect 3 0 0 0;
#X connect 3 1 1 0;
#X connect 3 2 2 0;
#X connect 4 0 8 0;
#X connect 8 0 3 0;
#X restore 547 766 pd landmark19;
#N canvas 49 49 1907 1069 landmark20 0;
#X floatatom 258 336 5 0 0 2 x-value - - 0;
#X floatatom 315 338 5 0 0 2 y-value - - 0;
#X floatatom 378 342 5 0 0 2 z-value - - 0;
#X obj 274 277 unpack f f f;
#X obj 275 75 inlet;
#X obj 242 387 outlet;
#X obj 312 394 outlet;
#X obj 373 389 outlet;
#X obj 283 171 route landmark20;
#X connect 0 0 5 0;
#X connect 1 0 6 0;
#X connect 2 0 7 0;
#X connect 3 0 0 0;
#X connect 3 1 1 0;
#X connect 3 2 2 0;
#X connect 4 0 8 0;
#X connect 8 0 3 0;
#X restore 660 767 pd landmark20;
#N canvas 49 49 1907 1069 landmark21 0;
#X floatatom 266 282 5 0 0 2 x-value - - 0;
#X floatatom 323 284 5 0 0 2 y-value - - 0;
#X floatatom 386 288 5 0 0 2 z-value - - 0;
#X obj 282 223 unpack f f f;
#X obj 275 75 inlet;
#X obj 250 333 outlet;
#X obj 320 340 outlet;
#X obj 381 335 outlet;
#X obj 277 147 route landmark21;
#X connect 0 0 5 0;
#X connect 1 0 6 0;
#X connect 2 0 7 0;
#X connect 3 0 0 0;
#X connect 3 1 1 0;
#X connect 3 2 2 0;
#X connect 4 0 8 0;
#X connect 8 0 3 0;
#X restore 550 837 pd landmark21;
#N canvas 49 49 1907 1069 landmark22 0;
#X floatatom 263 361 5 0 0 2 x-value - - 0;
#X floatatom 320 363 5 0 0 2 y-value - - 0;
#X floatatom 383 367 5 0 0 2 z-value - - 0;
#X obj 279 302 unpack f f f;
#X obj 275 75 inlet;
#X obj 247 412 outlet;
#X obj 317 419 outlet;
#X obj 378 414 outlet;
#X obj 277 179 route landmark22;
#X connect 0 0 5 0;
#X connect 1 0 6 0;
#X connect 2 0 7 0;
#X connect 3 0 0 0;
#X connect 3 1 1 0;
#X connect 3 2 2 0;
#X connect 4 0 8 0;
#X connect 8 0 3 0;
#X restore 655 842 pd landmark22;
#N canvas 49 49 1907 1069 landmark23 0;
#X floatatom 255 302 5 0 0 2 x-value - - 0;
#X floatatom 312 304 5 0 0 2 y-value - - 0;
#X floatatom 375 308 5 0 0 2 z-value - - 0;
#X obj 271 243 unpack f f f;
#X obj 275 75 inlet;
#X obj 239 353 outlet;
#X obj 309 360 outlet;
#X obj 370 355 outlet;
#X obj 265 149 route landmark23;
#X connect 0 0 5 0;
#X connect 1 0 6 0;
#X connect 2 0 7 0;
#X connect 3 0 0 0;
#X connect 3 1 1 0;
#X connect 3 2 2 0;
#X connect 4 0 8 0;
#X connect 8 0 3 0;
#X restore 555 913 pd landmark23;
#N canvas 49 49 1907 1069 landmark24 0;
#X floatatom 268 272 5 0 0 2 x-value - - 0;
#X floatatom 325 274 5 0 0 2 y-value - - 0;
#X floatatom 388 278 5 0 0 2 z-value - - 0;
#X obj 284 213 unpack f f f;
#X obj 275 75 inlet;
#X obj 252 323 outlet;
#X obj 322 330 outlet;
#X obj 383 325 outlet;
#X obj 268 144 route landmark24;
#X connect 0 0 5 0;
#X connect 1 0 6 0;
#X connect 2 0 7 0;
#X connect 3 0 0 0;
#X connect 3 1 1 0;
#X connect 3 2 2 0;
#X connect 4 0 8 0;
#X connect 8 0 3 0;
#X restore 662 916 pd landmark24;
#N canvas 49 49 1907 1069 landmark25 0;
#X floatatom 268 302 5 0 0 2 x-value - - 0;
#X floatatom 325 304 5 0 0 2 y-value - - 0;
#X floatatom 388 308 5 0 0 2 z-value - - 0;
#X obj 284 243 unpack f f f;
#X obj 275 75 inlet;
#X obj 252 353 outlet;
#X obj 322 360 outlet;
#X obj 383 355 outlet;
#X obj 270 152 route landmark25;
#X connect 0 0 5 0;
#X connect 1 0 6 0;
#X connect 2 0 7 0;
#X connect 3 0 0 0;
#X connect 3 1 1 0;
#X connect 3 2 2 0;
#X connect 4 0 8 0;
#X connect 8 0 3 0;
#X restore 549 987 pd landmark25;
#N canvas 49 49 1907 1069 landmark26 0;
#X floatatom 266 294 5 0 0 2 x-value - - 0;
#X floatatom 323 296 5 0 0 2 y-value - - 0;
#X floatatom 386 300 5 0 0 2 z-value - - 0;
#X obj 282 235 unpack f f f;
#X obj 275 75 inlet;
#X obj 250 345 outlet;
#X obj 320 352 outlet;
#X obj 381 347 outlet;
#X obj 273 144 route landmark26;
#X connect 0 0 5 0;
#X connect 1 0 6 0;
#X connect 2 0 7 0;
#X connect 3 0 0 0;
#X connect 3 1 1 0;
#X connect 3 2 2 0;
#X connect 4 0 8 0;
#X connect 8 0 3 0;
#X restore 654 989 pd landmark26;
#N canvas 49 49 1907 1069 landmark27 0;
#X floatatom 277 320 5 0 0 2 x-value - - 0;
#X floatatom 334 322 5 0 0 2 y-value - - 0;
#X floatatom 397 326 5 0 0 2 z-value - - 0;
#X obj 293 261 unpack f f f;
#X obj 275 75 inlet;
#X obj 261 371 outlet;
#X obj 331 378 outlet;
#X obj 392 373 outlet;
#X obj 277 172 route landmark27;
#X connect 0 0 5 0;
#X connect 1 0 6 0;
#X connect 2 0 7 0;
#X connect 3 0 0 0;
#X connect 3 1 1 0;
#X connect 3 2 2 0;
#X connect 4 0 8 0;
#X connect 8 0 3 0;
#X restore 549 1056 pd landmark27;
#N canvas 49 49 1907 1069 landmark28 0;
#X floatatom 260 295 5 0 0 2 x-value - - 0;
#X floatatom 317 297 5 0 0 2 y-value - - 0;
#X floatatom 380 301 5 0 0 2 z-value - - 0;
#X obj 276 236 unpack f f f;
#X obj 275 75 inlet;
#X obj 244 346 outlet;
#X obj 314 353 outlet;
#X obj 375 348 outlet;
#X obj 273 152 route landmark28;
#X connect 0 0 5 0;
#X connect 1 0 6 0;
#X connect 2 0 7 0;
#X connect 3 0 0 0;
#X connect 3 1 1 0;
#X connect 3 2 2 0;
#X connect 4 0 8 0;
#X connect 8 0 3 0;
#X restore 651 1057 pd landmark28;
#N canvas 49 49 1907 1069 landmark29 0;
#X floatatom 261 276 5 0 0 2 x-value - - 0;
#X floatatom 318 278 5 0 0 2 y-value - - 0;
#X floatatom 381 282 5 0 0 2 z-value - - 0;
#X obj 277 217 unpack f f f;
#X obj 275 75 inlet;
#X obj 245 327 outlet;
#X obj 315 334 outlet;
#X obj 376 329 outlet;
#X obj 278 147 route landmark29;
#X connect 0 0 5 0;
#X connect 1 0 6 0;
#X connect 2 0 7 0;
#X connect 3 0 0 0;
#X connect 3 1 1 0;
#X connect 3 2 2 0;
#X connect 4 0 8 0;
#X connect 8 0 3 0;
#X restore 545 1125 pd landmark29;
#N canvas 49 49 1907 1069 landmark30 0;
#X floatatom 257 366 5 0 0 2 x-value - - 0;
#X floatatom 314 368 5 0 0 2 y-value - - 0;
#X floatatom 377 372 5 0 0 2 z-value - - 0;
#X obj 273 307 unpack f f f;
#X obj 275 75 inlet;
#X obj 241 417 outlet;
#X obj 311 424 outlet;
#X obj 372 419 outlet;
#X obj 268 200 route landmark30;
#X connect 0 0 5 0;
#X connect 1 0 6 0;
#X connect 2 0 7 0;
#X connect 3 0 0 0;
#X connect 3 1 1 0;
#X connect 3 2 2 0;
#X connect 4 0 8 0;
#X connect 8 0 3 0;
#X restore 655 1130 pd landmark30;
#N canvas 49 49 1907 1069 landmark31 0;
#X floatatom 276 354 5 0 0 2 x-value - - 0;
#X floatatom 333 356 5 0 0 2 y-value - - 0;
#X floatatom 396 360 5 0 0 2 z-value - - 0;
#X obj 292 295 unpack f f f;
#X obj 275 75 inlet;
#X obj 260 405 outlet;
#X obj 330 412 outlet;
#X obj 391 407 outlet;
#X obj 284 183 route landmark31;
#X connect 0 0 5 0;
#X connect 1 0 6 0;
#X connect 2 0 7 0;
#X connect 3 0 0 0;
#X connect 3 1 1 0;
#X connect 3 2 2 0;
#X connect 4 0 8 0;
#X connect 8 0 3 0;
#X restore 555 1211 pd landmark31;
#N canvas 49 49 1907 1069 landmark32 0;
#X floatatom 265 289 5 0 0 2 x-value - - 0;
#X floatatom 322 291 5 0 0 2 y-value - - 0;
#X floatatom 385 295 5 0 0 2 z-value - - 0;
#X obj 281 230 unpack f f f;
#X obj 275 75 inlet;
#X obj 249 340 outlet;
#X obj 319 347 outlet;
#X obj 380 342 outlet;
#X obj 275 157 route landmark32;
#X connect 0 0 5 0;
#X connect 1 0 6 0;
#X connect 2 0 7 0;
#X connect 3 0 0 0;
#X connect 3 1 1 0;
#X connect 3 2 2 0;
#X connect 4 0 8 0;
#X connect 8 0 3 0;
#X restore 672 1211 pd landmark32;
#N canvas 150 119 1587 994 python-receive 0;
#X obj 239 228 netreceive -u -b;
#X msg 239 165 listen 0;
#X msg 239 207 listen 5006;
#X text 300 165 (listen 0 to close);
#X obj 239 186 loadbang;
#X text 321 206 <- bang to start listening;
#X obj 239 254 oscparse;
#X obj 239 286 list trim;
#X obj 235 326 outlet;
#X connect 0 0 6 0;
#X connect 1 0 0 0;
#X connect 2 0 0 0;
#X connect 4 0 2 0;
#X connect 6 0 7 0;
#X connect 7 0 8 0;
#X restore 1030 408 pd python-receive;
#X text 1027 383 General OSC;
#X text 1001 500 mediapipe \, pose detection;
#X obj 1052 450 print;
#N canvas 577 268 1054 596 landmark0 0;
#X floatatom 265 289 5 0 0 2 x-value - - 0;
#X floatatom 322 291 5 0 0 2 y-value - - 0;
#X floatatom 385 295 5 0 0 2 z-value - - 0;
#X obj 281 230 unpack f f f;
#X obj 275 75 inlet;
#X obj 249 340 outlet;
#X obj 319 347 outlet;
#X obj 380 342 outlet;
#X obj 275 157 route landmark0;
#X connect 0 0 5 0;
#X connect 1 0 6 0;
#X connect 2 0 7 0;
#X connect 3 0 0 0;
#X connect 3 1 1 0;
#X connect 3 2 2 0;
#X connect 4 0 8 0;
#X connect 8 0 3 0;
#X restore 628 132 pd landmark0;
#X text 999 529 For general purposes \, kunne det være at man skulle kunne sætte landmark tallet som argument \, i stedet for at skulle ændre det både ude fra og inde i patchen. men så igen så håber jeg ikke man skal ændre på de her landmarks;
#X text 636 165 left eye;
#X text 641 245 right eye;
#X text 633 397 mouth;
#X text 624 468 shoulders;
#X text 1000 614 If there are more in a category \, the landmarks relative position is then the next indicator. E.g. for mouth \, landmark 9 is left of mouth \, 10 is right of mouth. Landmark 11 is left shoulder \, 12 is right shoulder;
#X text 635 324 ears;
#X text 636 533 elbows;
#X text 629 599 wrists;
#X text 627 675 pinkies;
#X text 636 745 indexes;
#X text 634 808 thumbs;
#X text 636 883 hip;
#X text 993 706 From this \, if you want to find center of certain things \, you could add the 2 values together \, and divide. E.g. center of hip is kind of center of person \, so you could add the x-values to find the middle of the person on the x-axis;
#X text 632 955 knees;
#X text 629 1028 ankles;
#X text 629 1103 heels;
#X text 1272 1240 HELPER COMMENT - MAKES PATCH MORE VIEWABLE;
#X floatatom 201 165 5 0 0 2 x - - 0;
#X floatatom 912 213 5 0 0 0 - - - 0;
#X text 628 110 nose;
#X text 611 1177 front foots;
#X text 233 205 left eye;
#X text 258 259 right eye;
#X text 250 411 mouth;
#X text 252 338 ears;
#X text 253 547 elbows;
#X text 246 613 wrists;
#X text 244 689 pinkies;
#X text 253 759 indexes;
#X text 251 822 thumbs;
#X text 253 897 hip;
#X text 249 969 knees;
#X text 246 1042 ankles;
#X text 246 1117 heels;
#X text 228 1191 front foots;
#X text 245 124 nose;
#X floatatom 249 165 5 0 0 2 y - - 0;
#X floatatom 299 166 5 0 0 2 z - - 0;
#X connect 14 0 56 0;
#X connect 32 0 35 0;
#X connect 32 0 0 0;
#X connect 32 0 31 0;
#X connect 32 0 30 0;
#X connect 32 0 29 0;
#X connect 32 0 28 0;
#X connect 32 0 27 0;
#X connect 32 0 26 0;
#X connect 32 0 25 0;
#X connect 32 0 24 0;
#X connect 32 0 23 0;
#X connect 32 0 22 0;
#X connect 32 0 21 0;
#X connect 32 0 20 0;
#X connect 32 0 19 0;
#X connect 32 0 18 0;
#X connect 32 0 17 0;
#X connect 32 0 16 0;
#X connect 32 0 15 0;
#X connect 32 0 14 0;
#X connect 32 0 13 0;
#X connect 32 0 12 0;
#X connect 32 0 11 0;
#X connect 32 0 10 0;
#X connect 32 0 9 0;
#X connect 32 0 8 0;
#X connect 32 0 7 0;
#X connect 32 0 6 0;
#X connect 32 0 5 0;
#X connect 32 0 4 0;
#X connect 32 0 3 0;
#X connect 32 0 2 0;
#X connect 32 0 1 0;
#X connect 32 0 36 0;
#X connect 36 0 55 0;
#X connect 36 1 74 0;
#X connect 36 2 75 0;
#X coords 0 -1 1 1 400 1200 1 100 100;
