#N canvas 365 124 920 503 12;
#X obj 13 13 tgl 19 0 empty empty empty 0 -10 0 12 #fcfcfc #000000 #000000 0 1;
#X msg 15 52 \; pd dsp \$1;
#N canvas 8 46 894 562 SFXs 1;
#N canvas 848 38 880 707 Engine 1;
#N canvas 514 106 663 715 FMSynth 0;
#X obj 99 206 vsl 19 162 0 1000 0 0 empty empty empty 0 -9 0 12 #fcfcfc #000000 #000000 0 1;
#X obj 307 287 bng 19 250 50 0 empty empty empty 0 -10 0 12 #fcfcfc #000000 #000000;
#X obj 350 247 hsl 162 19 0 50 0 0 empty empty empty -2 -10 0 12 #fcfcfc #000000 #000000 0 1;
#X obj 373 293 hsl 162 19 70 200 0 0 empty empty empty -2 -10 0 12 #fcfcfc #000000 #000000 0 1;
#X obj 305 121 tgl 19 0 empty empty empty 0 -10 0 12 #fcfcfc #000000 #000000 0 1;
#N canvas 0 40 342 335 Env1 0;
#X obj 17 42 bng 19 250 50 0 empty empty empty 0 -10 0 12 #fcfcfc #000000 #000000;
#X obj 227 157 bng 19 250 50 0 empty empty empty 0 -10 0 12 #fcfcfc #000000 #000000;
#X floatatom 106 266 5 0 0 0 - - - 0;
#X obj 228 128 delay;
#X obj 69 180 inlet;
#X obj 280 182 inlet;
#X obj 17 16 inlet;
#X obj 17 209 pack f f;
#X obj 227 209 pack f f;
#X floatatom 227 183 5 0 0 0 - - - 0;
#X floatatom 17 183 5 0 0 0 - - - 0;
#X obj 106 241 line;
#X obj 106 293 outlet;
#X msg 17 159 1;
#X text 22 129 Attack;
#X text 230 99 Decay;
#X connect 0 0 3 0;
#X connect 0 0 13 0;
#X connect 1 0 9 0;
#X connect 2 0 12 0;
#X connect 3 0 1 0;
#X connect 4 0 7 1;
#X connect 4 0 3 1;
#X connect 5 0 8 1;
#X connect 6 0 0 0;
#X connect 7 0 11 0;
#X connect 8 0 11 0;
#X connect 9 0 8 0;
#X connect 10 0 7 0;
#X connect 11 0 2 0;
#X connect 13 0 10 0;
#X restore 324 319 pd Env1;
#N canvas 234 235 1213 555 Modulators 0;
#X floatatom 971 230 5 0 0 0 - - - 0;
#X obj 973 268 osc~;
#X obj 972 300 *~;
#X floatatom 1008 302 5 0 0 0 - - - 0;
#X obj 730 296 *~;
#X floatatom 768 295 5 0 0 0 - - - 0;
#X floatatom 816 227 5 0 0 0 - - - 0;
#X obj 428 296 *~;
#X floatatom 465 294 5 0 0 0 - - - 0;
#X floatatom 428 219 5 0 0 0 - - - 0;
#X obj 428 262 osc~;
#X obj 183 298 *~;
#X floatatom 225 299 5 0 0 0 - - - 0;
#X floatatom 183 231 5 0 0 0 - - - 0;
#X obj 183 260 osc~;
#X obj 114 331 *~;
#X obj 347 332 *~;
#X obj 668 315 *~;
#X obj 900 316 *~;
#X obj 568 235 osc~;
#X floatatom 568 210 5 0 0 0 - - - 0;
#X obj 551 492 outlet~;
#X obj 729 258 osc~;
#X obj 551 42 inlet;
#X obj 670 237 osc~;
#X obj 670 261 +~ 1;
#X obj 670 285 *~ 0.5;
#X obj 116 249 osc~;
#X obj 114 273 +~ 1;
#X obj 116 303 *~ 0.5;
#X obj 350 255 osc~;
#X obj 350 279 +~ 1;
#X obj 350 303 *~ 0.5;
#X obj 902 237 osc~;
#X obj 902 261 +~ 1;
#X obj 902 285 *~ 0.5;
#X obj 903 209 inlet;
#X obj 670 209 inlet;
#X obj 349 223 inlet;
#X obj 117 217 inlet;
#X msg 1056 299 252;
#X msg 1018 229 242;
#X msg 779 226 3;
#X msg 816 293 -30;
#X msg 470 223 27;
#X obj 469 262 hsl 162 19 10 4000 0 0 empty empty empty -2 -10 0 12 #fcfcfc #000000 #000000 0 1;
#X msg 568 183 1500;
#X msg 273 298 3000;
#N canvas 722 172 450 300 osc1 0;
#X restore 173 120 pd osc1;
#X connect 0 0 1 0;
#X connect 1 0 2 0;
#X connect 2 0 18 0;
#X connect 3 0 2 1;
#X connect 4 0 17 0;
#X connect 5 0 4 1;
#X connect 7 0 16 0;
#X connect 8 0 7 1;
#X connect 9 0 10 0;
#X connect 10 0 7 0;
#X connect 11 0 15 0;
#X connect 12 0 11 1;
#X connect 13 0 14 0;
#X connect 14 0 11 0;
#X connect 15 0 21 0;
#X connect 16 0 21 0;
#X connect 17 0 21 0;
#X connect 18 0 21 0;
#X connect 19 0 22 0;
#X connect 19 0 10 0;
#X connect 20 0 19 0;
#X connect 22 0 4 0;
#X connect 23 0 44 0;
#X connect 23 0 46 0;
#X connect 23 0 43 0;
#X connect 23 0 40 0;
#X connect 23 0 41 0;
#X connect 23 0 42 0;
#X connect 23 0 47 0;
#X connect 24 0 25 0;
#X connect 25 0 26 0;
#X connect 26 0 17 1;
#X connect 27 0 28 0;
#X connect 28 0 29 0;
#X connect 29 0 15 1;
#X connect 30 0 31 0;
#X connect 31 0 32 0;
#X connect 32 0 16 1;
#X connect 33 0 34 0;
#X connect 34 0 35 0;
#X connect 35 0 18 1;
#X connect 36 0 33 0;
#X connect 37 0 24 0;
#X connect 38 0 30 0;
#X connect 39 0 27 0;
#X connect 40 0 3 0;
#X connect 41 0 0 0;
#X connect 42 0 6 0;
#X connect 43 0 5 0;
#X connect 44 0 9 0;
#X connect 45 0 8 0;
#X connect 45 0 13 0;
#X connect 46 0 20 0;
#X connect 47 0 12 0;
#X restore 189 386 pd Modulators;
#X obj 387 23 vsl 19 162 0 100 0 0 empty empty empty 0 -9 0 12 #fcfcfc #000000 #000000 0 1;
#X obj 306 171 metro;
#X obj 243 569 lop~;
#X obj 285 570 hsl 162 19 100 5000 0 0 empty empty empty -2 -10 0 12 #fcfcfc #000000 #000000 0 1;
#X obj 286 541 hsl 162 19 0 10000 0 0 empty empty empty -2 -10 0 12 #fcfcfc #000000 #000000 0 1;
#X obj 328 199 random 100;
#N canvas 976 91 544 389 Oscilattors 0;
#X floatatom 113 122 5 60 300 0 - - - 0;
#X obj 178 190 +~;
#X obj 238 190 +~;
#X obj 178 222 osc~;
#X obj 221 222 phasor~;
#X obj 137 301 *~;
#X obj 288 222 osc~;
#X obj 333 218 phasor~;
#X msg 269 69 0.5;
#X msg 314 65 0.03;
#X msg 366 62 0.55;
#X obj 331 167 *~ 2;
#X obj 394 152 *~ 0.5;
#X obj 396 219 phasor~;
#X obj 494 284 inlet~;
#X text 184 44 FM inlet;
#X text 110 98 Pitch;
#X obj 304 16 loadbang;
#X obj 138 337 outlet~;
#X text 481 260 Env inlet;
#X obj 198 69 inlet~;
#X obj 460 220 phasor~;
#X obj 457 148 *~ 0.25;
#X obj 282 179 *~ 0.5;
#X obj 60 123 inlet;
#X connect 0 0 1 0;
#X connect 0 0 2 0;
#X connect 0 0 11 0;
#X connect 0 0 12 0;
#X connect 0 0 22 0;
#X connect 0 0 23 0;
#X connect 1 0 3 0;
#X connect 2 0 4 0;
#X connect 3 0 5 0;
#X connect 4 0 5 0;
#X connect 5 0 18 0;
#X connect 6 0 5 0;
#X connect 7 0 5 0;
#X connect 8 0 4 1;
#X connect 9 0 6 1;
#X connect 10 0 7 1;
#X connect 11 0 7 0;
#X connect 12 0 13 0;
#X connect 13 0 5 0;
#X connect 14 0 5 1;
#X connect 17 0 8 0;
#X connect 17 0 9 0;
#X connect 17 0 10 0;
#X connect 20 0 1 1;
#X connect 20 0 2 1;
#X connect 21 0 5 0;
#X connect 22 0 21 0;
#X connect 23 0 6 0;
#X connect 24 0 0 0;
#X restore 229 443 pd Oscilattors;
#X text 330 428 Env;
#X text 213 427 FM;
#X text 346 221 Attack;
#X text 369 273 Decay;
#X text 407 95 Trigger Tempo;
#X obj 277 360 loadbang;
#X obj 243 543 hip~;
#X obj 66 504 * 10;
#X obj 127 389 * 0.3;
#X obj 230 290 loadbang;
#X msg 229 320 1000;
#X obj 247 493 *~ 0.5;
#X obj 243 599 outlet~;
#X obj 99 169 inlet;
#X obj 305 80 inlet;
#X obj 236 223 * 0.2;
#X connect 0 0 6 0;
#X connect 0 0 21 0;
#X connect 0 0 22 0;
#X connect 1 0 5 0;
#X connect 2 0 5 1;
#X connect 3 0 5 2;
#X connect 4 0 8 0;
#X connect 5 0 13 2;
#X connect 6 0 13 1;
#X connect 7 0 8 1;
#X connect 8 0 1 0;
#X connect 8 0 12 0;
#X connect 9 0 26 0;
#X connect 10 0 9 1;
#X connect 11 0 20 1;
#X connect 12 0 7 0;
#X connect 13 0 25 0;
#X connect 19 0 6 2;
#X connect 20 0 9 0;
#X connect 21 0 10 0;
#X connect 22 0 13 0;
#X connect 23 0 24 0;
#X connect 24 0 6 1;
#X connect 24 0 6 4;
#X connect 24 0 6 3;
#X connect 25 0 20 0;
#X connect 27 0 0 0;
#X connect 27 0 29 0;
#X connect 28 0 4 0;
#X connect 29 0 3 0;
#X restore 116 243 pd FMSynth;
#X obj 183 216 tgl 19 0 empty empty empty 0 -10 0 12 #fcfcfc #000000 #000000 0 1;
#X obj 85 150 hsl 162 19 0 1000 0 0 empty empty empty -2 -10 0 12 #fcfcfc #000000 #000000 0 1;
#X obj 207 215 tgl 19 0 empty empty empty 0 -10 0 12 #fcfcfc #000000 #000000 0 1;
#X floatatom 82 128 5 0 0 0 - - - 0;
#X obj 82 104 expr 1000 - $f1;
#X obj 287 79 * 0.5;
#N canvas 767 135 643 675 Noise 0;
#X floatatom 75 507 5 0 0 0 - - - 0;
#X obj 138 467 bng 19 250 50 0 empty empty empty 0 -10 0 12 #fcfcfc #000000 #000000;
#X obj 139 407 tgl 19 0 empty empty empty 0 -10 0 12 #fcfcfc #000000 #000000 0 1;
#N canvas 582 109 798 686 Env2 0;
#X obj 415 180 bng 19 250 50 0 empty empty empty 0 -10 0 12 #fcfcfc #000000 #000000;
#X obj 241 223 bng 19 250 50 0 empty empty empty 0 -10 0 12 #fcfcfc #000000 #000000;
#X floatatom 252 436 5 0 0 0 - - - 0;
#X obj 271 223 delay;
#X obj 548 341 inlet;
#X obj 304 352 inlet;
#X obj 416 150 inlet;
#X obj 500 367 pack f f;
#X obj 251 378 pack f f;
#X obj 252 407 line;
#X obj 252 469 outlet;
#X msg 453 341 5000;
#X floatatom 233 294 5 0 0 0 - - - 0;
#X floatatom 500 342 5 0 0 0 - - - 0;
#X obj 197 222 inlet;
#X msg 182 250 110;
#X text 508 309 Upper limit;
#X text 213 183 Lower limit;
#X obj 122 219 loadbang;
#X obj 388 340 loadbang;
#X connect 0 0 3 0;
#X connect 0 0 13 0;
#X connect 1 0 12 0;
#X connect 2 0 10 0;
#X connect 3 0 1 0;
#X connect 4 0 7 1;
#X connect 4 0 3 1;
#X connect 5 0 8 1;
#X connect 6 0 0 0;
#X connect 7 0 9 0;
#X connect 8 0 9 0;
#X connect 9 0 2 0;
#X connect 11 0 13 0;
#X connect 12 0 8 0;
#X connect 13 0 7 0;
#X connect 14 0 15 0;
#X connect 14 0 11 0;
#X connect 15 0 12 0;
#X connect 18 0 15 0;
#X connect 19 0 11 0;
#X restore 131 505 pd Env2;
#X obj 174 405 hsl 162 19 100 500 0 0 empty empty empty -2 -10 0 12 #fcfcfc #000000 #000000 0 1;
#X obj 189 434 * 0.5;
#X obj 139 436 metro;
#X obj 107 467 bng 19 250 50 0 empty empty empty 0 -10 0 12 #fcfcfc #000000 #000000;
#X obj 32 368 noise~;
#X obj 85 336 bng 19 250 50 0 empty empty empty 0 -10 0 12 #fcfcfc #000000 #000000;
#X obj 112 244 hsl 162 19 0 50 0 0 empty empty empty -2 -10 0 12 #fcfcfc #000000 #000000 0 1;
#X obj 140 342 hsl 162 19 70 200 0 0 empty empty empty -2 -10 0 12 #fcfcfc #000000 #000000 0 1;
#X obj 85 120 tgl 19 0 empty empty empty 0 -10 0 12 #fcfcfc #000000 #000000 0 1;
#N canvas 0 40 342 335 Env1 0;
#X obj 17 42 bng 19 250 50 0 empty empty empty 0 -10 0 12 #fcfcfc #000000 #000000;
#X obj 227 157 bng 19 250 50 0 empty empty empty 0 -10 0 12 #fcfcfc #000000 #000000;
#X floatatom 106 266 5 0 0 0 - - - 0;
#X obj 228 128 delay;
#X obj 69 180 inlet;
#X obj 280 182 inlet;
#X obj 17 16 inlet;
#X obj 17 209 pack f f;
#X obj 227 209 pack f f;
#X floatatom 227 183 5 0 0 0 - - - 0;
#X floatatom 17 183 5 0 0 0 - - - 0;
#X obj 106 241 line;
#X obj 106 293 outlet;
#X msg 17 159 1;
#X text 22 129 Attack;
#X text 230 99 Decay;
#X connect 0 0 3 0;
#X connect 0 0 13 0;
#X connect 1 0 9 0;
#X connect 2 0 12 0;
#X connect 3 0 1 0;
#X connect 4 0 7 1;
#X connect 4 0 3 1;
#X connect 5 0 8 1;
#X connect 6 0 0 0;
#X connect 7 0 11 0;
#X connect 8 0 11 0;
#X connect 9 0 8 0;
#X connect 10 0 7 0;
#X connect 11 0 2 0;
#X connect 13 0 10 0;
#X restore 85 368 pd Env1;
#X obj 163 47 vsl 19 162 15 100 0 0 empty empty empty 0 -9 0 12 #fcfcfc #000000 #000000 0 1;
#X obj 85 149 metro;
#X text 107 223 Attack;
#X text 185 318 Decay;
#X text 187 115 Trigger Tempo;
#X obj 85 79 inlet;
#X obj 35 477 *~;
#X obj 36 507 hip~;
#X obj 424 341 hsl 162 19 50 500 0 0 empty empty empty -2 -10 0 12 #fcfcfc #000000 #000000 0 1;
#X obj 163 21 * 0.2;
#X obj 39 542 lop~;
#X obj 219 627 loadbang;
#X obj 99 678 hsl 162 19 1000 10000 0 0 empty empty empty -2 -10 0 12 #fcfcfc #000000 #000000 0 1;
#X obj 96 600 expr 10000 - $f1;
#X obj 96 574 * 20;
#X floatatom 96 652 5 0 0 0 - - - 0;
#X obj 96 627 + 300;
#X obj 335 360 + 50;
#X msg 219 651 10000;
#X obj 421 263 inlet;
#X obj 16 600 outlet~;
#X msg 137 310 150;
#X obj 137 282 loadbang;
#X obj 148 375 inlet;
#X connect 0 0 21 1;
#X connect 1 0 3 2;
#X connect 2 0 6 0;
#X connect 3 0 0 0;
#X connect 4 0 5 0;
#X connect 4 0 6 1;
#X connect 5 0 3 3;
#X connect 5 0 3 1;
#X connect 6 0 1 0;
#X connect 7 0 3 0;
#X connect 8 0 20 0;
#X connect 9 0 13 0;
#X connect 10 0 13 1;
#X connect 11 0 13 2;
#X connect 12 0 15 0;
#X connect 13 0 20 1;
#X connect 14 0 15 1;
#X connect 15 0 9 0;
#X connect 19 0 12 0;
#X connect 20 0 21 0;
#X connect 21 0 24 0;
#X connect 22 0 23 0;
#X connect 22 0 28 0;
#X connect 22 0 31 0;
#X connect 23 0 14 0;
#X connect 24 0 34 0;
#X connect 25 0 32 0;
#X connect 26 0 24 1;
#X connect 27 0 30 0;
#X connect 28 0 27 0;
#X connect 29 0 26 0;
#X connect 30 0 29 0;
#X connect 31 0 4 0;
#X connect 32 0 26 0;
#X connect 33 0 22 0;
#X connect 35 0 11 0;
#X connect 36 0 35 0;
#X connect 37 0 2 0;
#X restore 256 243 pd Noise;
#X obj 256 335 *~;
#X obj 234 216 tgl 19 0 empty empty empty 0 -10 0 12 #fcfcfc #000000 #000000 0 1;
#X obj 260 215 tgl 19 0 empty empty empty 0 -10 0 12 #fcfcfc #000000 #000000 0 1;
#X obj 256 471 outlet~;
#X obj 233 178 inlet;
#X obj 82 57 inlet;
#N canvas 450 38 503 998 Oscillator 0;
#X obj 17 285 outlet~;
#X obj 18 73 hsl 162 19 0 900 0 0 empty empty empty -2 -10 0 12 #fcfcfc #000000 #000000 0 1;
#X obj 17 131 osc~ 1;
#X floatatom 16 102 5 0 0 0 - - - 0;
#X obj 16 15 inlet;
#X obj 16 44 expr 1000 - $f1;
#X obj 217 197 delread~ oscChorus 100;
#X obj 227 144 delwrite~ oscChorus 1100;
#X obj 18 252 *~ 0.6;
#X connect 1 0 3 0;
#X connect 2 0 7 0;
#X connect 2 0 8 0;
#X connect 3 0 2 0;
#X connect 4 0 5 0;
#X connect 5 0 1 0;
#X connect 6 0 8 0;
#X connect 8 0 0 0;
#X restore 19 243 pd Oscillator;
#X obj 256 392 lop~;
#X obj 281 366 inlet;
#X obj 302 394 inlet;
#X obj 256 305 *~;
#X obj 256 419 hip~ 60;
#X obj 256 446 *~ 2;
#N canvas 63 101 277 389 Tremolo 0;
#X obj 72 111 hsl 162 19 0 10 0 0 empty empty empty -2 -10 0 12 #fcfcfc #000000 #000000 0 1;
#X obj 45 239 osc~;
#X obj 24 186 int;
#X obj 24 56 * 0.05;
#X floatatom 45 212 5 0 0 0 - - - 0;
#X obj 71 149 loadbang;
#X obj 45 269 +~ 1;
#X obj 45 297 /~ 7;
#X obj 24 84 + 10;
#X msg 71 178 60;
#X obj 28 15 inlet;
#X obj 45 325 outlet~;
#X connect 1 0 6 0;
#X connect 2 0 4 0;
#X connect 3 0 8 0;
#X connect 4 0 1 0;
#X connect 5 0 9 0;
#X connect 6 0 7 0;
#X connect 7 0 11 0;
#X connect 8 0 0 0;
#X connect 8 0 2 0;
#X connect 9 0 4 0;
#X connect 10 0 3 0;
#X restore 475 156 pd Tremolo;
#X connect 0 0 18 0;
#X connect 1 0 0 1;
#X connect 2 0 0 0;
#X connect 3 0 8 1;
#X connect 4 0 2 0;
#X connect 5 0 4 0;
#X connect 6 0 7 2;
#X connect 7 0 18 0;
#X connect 8 0 15 0;
#X connect 9 0 7 0;
#X connect 10 0 7 1;
#X connect 12 0 1 0;
#X connect 12 0 9 0;
#X connect 12 0 10 0;
#X connect 12 0 3 0;
#X connect 13 0 6 0;
#X connect 13 0 5 0;
#X connect 13 0 14 0;
#X connect 13 0 21 0;
#X connect 14 0 18 0;
#X connect 15 0 19 0;
#X connect 16 0 15 1;
#X connect 17 0 19 1;
#X connect 18 0 8 0;
#X connect 19 0 20 0;
#X connect 20 0 11 0;
#X connect 21 0 18 1;
#X restore 252 312 pd Engine;
#X obj 257 279 tgl 19 0 empty empty empty 0 -10 0 12 #fcfcfc #000000 #000000 0 1;
#X obj 170 215 hsl 162 19 50 1000 0 0 empty empty empty -2 -10 0 12 #fcfcfc #000000 #000000 0 1;
#X obj 81 133 loadbang;
#X msg 82 157 1000;
#X obj 574 443 dac~;
#X obj 149 157 line;
#X obj 417 58 bng 19 250 50 0 empty empty empty 0 -10 0 12 #fcfcfc #000000 #000000;
#N canvas 1386 273 199 249 Impact 0;
#X obj 79 51 bng 19 250 50 0 empty empty empty 0 -10 0 12 #fcfcfc #000000 #000000;
#X obj 79 193 outlet~;
#X obj 79 26 inlet;
#N canvas 38 418 505 534 Bass 0;
#X obj 112 182 line;
#X obj 144 248 +~;
#X obj 22 147 noise~;
#X obj 112 213 phasor~;
#X obj 178 212 osc~;
#X obj 241 190 hsl 162 19 0 5000 0 0 empty empty empty -2 -10 0 12 #fcfcfc #000000 #000000 0 1;
#X obj 238 138 loadbang;
#X msg 237 165 3000;
#N canvas 919 450 362 426 AmpEnv 0;
#X obj 17 42 bng 19 250 50 0 empty empty empty 0 -10 0 12 #fcfcfc #000000 #000000;
#X obj 227 157 bng 19 250 50 0 empty empty empty 0 -10 0 12 #fcfcfc #000000 #000000;
#X floatatom 121 325 5 0 0 0 - - - 0;
#X obj 228 128 delay;
#X obj 280 182 inlet;
#X obj 17 16 inlet;
#X obj 17 209 pack f f;
#X obj 227 209 pack f f;
#X floatatom 227 183 5 0 0 0 - - - 0;
#X floatatom 17 183 5 0 0 0 - - - 0;
#X obj 121 300 line;
#X obj 121 352 outlet;
#X msg 17 159 1;
#X text 22 129 Attack;
#X text 230 99 Decay;
#X connect 0 0 3 0;
#X connect 0 0 12 0;
#X connect 1 0 8 0;
#X connect 2 0 11 0;
#X connect 3 0 1 0;
#X connect 4 0 7 1;
#X connect 5 0 0 0;
#X connect 6 0 10 0;
#X connect 7 0 10 0;
#X connect 8 0 7 0;
#X connect 9 0 6 0;
#X connect 10 0 2 0;
#X connect 12 0 9 0;
#X restore 238 215 pd AmpEnv;
#X obj 164 73 inlet;
#X obj 128 390 outlet~;
#X obj 129 302 *~;
#X obj 58 262 *~ 1;
#X obj 129 342 *~;
#X obj 246 328 osc~;
#X obj 247 299 line;
#X obj 22 172 hip~ 5000;
#X obj 22 197 hip~ 5000;
#X obj 32 223 hip~ 5000;
#X msg 112 153 50 \, 10 4000;
#X msg 244 266 5 \, 0 3000;
#X connect 0 0 3 0;
#X connect 0 0 4 0;
#X connect 1 0 11 0;
#X connect 2 0 16 0;
#X connect 3 0 1 0;
#X connect 4 0 1 1;
#X connect 5 0 8 1;
#X connect 6 0 7 0;
#X connect 7 0 5 0;
#X connect 8 0 11 1;
#X connect 9 0 8 0;
#X connect 9 0 19 0;
#X connect 9 0 20 0;
#X connect 11 0 13 0;
#X connect 12 0 11 0;
#X connect 13 0 10 0;
#X connect 14 0 13 1;
#X connect 15 0 14 0;
#X connect 16 0 17 0;
#X connect 17 0 18 0;
#X connect 18 0 12 0;
#X connect 19 0 0 0;
#X connect 20 0 15 0;
#X restore 142 82 pd Bass;
#N canvas 1297 41 415 259 Tone 0;
#X obj 53 166 *~;
#X obj 224 136 hsl 162 19 0 5000 0 0 empty empty empty -2 -10 0 12 #fcfcfc #000000 #000000 0 1;
#X obj 55 116 line;
#X obj 53 140 osc~;
#X obj 221 84 loadbang;
#X msg 220 111 3000;
#X obj 174 136 inlet;
#X obj 54 192 outlet~;
#X obj 54 58 inlet;
#X obj 167 23 bng 19 250 50 0 empty empty empty 0 -10 0 12 #fcfcfc #000000 #000000;
#N canvas 1289 448 362 426 AmpEnvTone 0;
#X obj 17 42 bng 19 250 50 0 empty empty empty 0 -10 0 12 #fcfcfc #000000 #000000;
#X obj 227 157 bng 19 250 50 0 empty empty empty 0 -10 0 12 #fcfcfc #000000 #000000;
#X floatatom 121 325 5 0 0 0 - - - 0;
#X obj 228 128 delay;
#X obj 280 182 inlet;
#X obj 17 16 inlet;
#X obj 17 209 pack f f;
#X obj 227 209 pack f f;
#X floatatom 227 183 5 0 0 0 - - - 0;
#X floatatom 17 183 5 0 0 0 - - - 0;
#X obj 121 300 line;
#X obj 121 352 outlet;
#X msg 17 159 1;
#X text 22 129 Attack;
#X text 230 99 Decay;
#X connect 0 0 3 0;
#X connect 0 0 12 0;
#X connect 1 0 8 0;
#X connect 2 0 11 0;
#X connect 3 0 1 0;
#X connect 4 0 7 1;
#X connect 5 0 0 0;
#X connect 6 0 10 0;
#X connect 7 0 10 0;
#X connect 8 0 7 0;
#X connect 9 0 6 0;
#X connect 10 0 2 0;
#X connect 12 0 9 0;
#X restore 175 167 pd AmpEnvTone;
#X msg 56 90 80 \, 20 3000;
#X connect 0 0 7 0;
#X connect 1 0 10 1;
#X connect 2 0 3 0;
#X connect 3 0 0 0;
#X connect 4 0 5 0;
#X connect 5 0 1 0;
#X connect 6 0 10 0;
#X connect 8 0 11 0;
#X connect 9 0 10 0;
#X connect 9 0 11 0;
#X connect 10 0 0 1;
#X connect 11 0 2 0;
#X restore 79 84 pd Tone;
#N canvas 500 588 212 326 Hit 0;
#X obj 78 81 line~;
#X obj 78 106 sqrt~;
#X obj 78 139 *~ 20;
#X obj 78 174 -~ 0.25;
#X obj 78 202 cos~;
#X obj 78 232 lop~ 1000;
#X msg 78 49 0 \, 1 500;
#X obj 79 265 outlet~;
#X obj 79 15 inlet;
#X connect 0 0 1 0;
#X connect 1 0 2 0;
#X connect 2 0 3 0;
#X connect 3 0 4 0;
#X connect 4 0 5 0;
#X connect 5 0 7 0;
#X connect 6 0 0 0;
#X connect 8 0 6 0;
#X restore 24 83 pd Hit;
#X obj 79 143 lop~ 5000;
#X obj 79 166 *~ 3;
#X connect 0 0 3 0;
#X connect 0 0 4 0;
#X connect 0 0 4 1;
#X connect 0 0 5 0;
#X connect 2 0 0 0;
#X connect 3 0 6 0;
#X connect 4 0 6 0;
#X connect 5 0 6 0;
#X connect 6 0 7 0;
#X connect 7 0 1 0;
#X restore 586 306 pd Impact;
#X obj 586 408 *~ 0.5;
#X obj 586 380 lop~;
#X obj 657 331 line;
#X msg 657 306 6000 \, 100 2000;
#X msg 149 132 50 \, 1000 100;
#X obj 149 180 sqrt;
#N canvas 835 55 988 561 TakeOffNoise 1;
#X obj 438 138 bng 19 250 50 0 empty empty empty 0 -10 0 12 #fcfcfc #000000 #000000;
#X obj 187 158 noise~;
#X obj 187 224 hip~;
#X obj 187 283 *~;
#X obj 263 197 line;
#X obj 263 140 loadbang;
#X obj 266 279 line;
#X obj 187 252 hip~;
#X obj 407 227 loadbang;
#X msg 263 171 0 \, 10000 300;
#X msg 477 259 0.4 \, 0 600;
#X obj 499 228 delay 500;
#X msg 266 254 0 \, 0.4 500;
#X obj 185 390 outlet~;
#X obj 438 114 inlet;
#X obj 186 186 hip~ 6000;
#X obj 187 349 lop~ 8000;
#X connect 0 0 9 0;
#X connect 0 0 10 0;
#X connect 0 0 12 0;
#X connect 0 0 11 0;
#X connect 1 0 15 0;
#X connect 2 0 7 0;
#X connect 3 0 16 0;
#X connect 4 0 2 1;
#X connect 4 0 7 1;
#X connect 5 0 9 0;
#X connect 6 0 3 1;
#X connect 7 0 3 0;
#X connect 8 0 10 0;
#X connect 9 0 4 0;
#X connect 10 0 6 0;
#X connect 11 0 10 0;
#X connect 12 0 6 0;
#X connect 14 0 0 0;
#X connect 15 0 2 0;
#X connect 16 0 13 0;
#X restore 416 190 pd TakeOffNoise;
#N canvas 24 77 666 484 EngineHum 0;
#X obj 119 179 osc~ 164.81;
#X obj 210 180 osc~ 174.61;
#X obj 298 179 osc~ 196;
#X obj 367 178 osc~ 261.63;
#X obj 321 337 *~;
#X obj 393 340 *~;
#X obj 321 279 rev2~ 100 90 3000 20;
#X obj 488 109 hsl 162 19 0 100 0 0 empty empty empty -2 -10 0 12 #fcfcfc #000000 #000000 0 1;
#X obj 30 155 * 1.3081;
#X obj 119 154 * 1.6481;
#X obj 210 155 * 1.7461;
#X obj 298 153 * 1.96;
#X obj 367 152 * 2.6163;
#X obj 30 180 osc~ 130.81;
#X obj 411 310 osc~ 5;
#X obj 339 310 osc~ 7;
#X obj 321 366 hip~ 1000;
#X obj 393 367 hip~ 1000;
#X obj 547 81 line;
#X obj 487 153 noise~;
#X obj 487 180 hip~ 6000;
#X obj 487 206 hip~ 6000;
#X obj 487 232 hip~ 6000;
#X obj 576 207 *~;
#X obj 561 176 osc~ 4;
#X obj 560 151 * 0.002;
#X obj 577 235 *~;
#X msg 547 56 0 \, 100 1000;
#X obj 321 253 *~ 0.5;
#X obj 485 58 bng 19 250 50 0 empty empty empty 0 -10 0 12 #fcfcfc #000000 #000000;
#X msg 485 82 0;
#X obj 419 58 loadbang;
#X obj 547 29 inlet;
#X obj 321 396 outlet~;
#X obj 393 396 outlet~;
#X obj 460 29 inlet;
#X obj 365 58 inlet;
#X connect 0 0 28 0;
#X connect 1 0 28 0;
#X connect 2 0 28 0;
#X connect 3 0 28 0;
#X connect 4 0 16 0;
#X connect 5 0 17 0;
#X connect 6 0 4 0;
#X connect 6 0 5 0;
#X connect 7 0 8 0;
#X connect 7 0 9 0;
#X connect 7 0 10 0;
#X connect 7 0 11 0;
#X connect 7 0 12 0;
#X connect 7 0 25 0;
#X connect 8 0 13 0;
#X connect 9 0 0 0;
#X connect 10 0 1 0;
#X connect 11 0 2 0;
#X connect 12 0 3 0;
#X connect 13 0 28 0;
#X connect 14 0 5 1;
#X connect 15 0 4 1;
#X connect 16 0 33 0;
#X connect 17 0 34 0;
#X connect 18 0 7 0;
#X connect 19 0 20 0;
#X connect 20 0 21 0;
#X connect 21 0 22 0;
#X connect 22 0 23 0;
#X connect 23 0 26 0;
#X connect 24 0 23 1;
#X connect 25 0 26 1;
#X connect 26 0 28 0;
#X connect 27 0 18 0;
#X connect 28 0 6 0;
#X connect 29 0 30 0;
#X connect 30 0 7 0;
#X connect 31 0 30 0;
#X connect 32 0 27 0;
#X connect 35 0 29 0;
#X connect 36 0 7 0;
#X restore 493 308 pd EngineHum;
#N canvas 956 214 659 517 EngineEnv 0;
#X obj 66 118 loadbang;
#X msg 66 144 10000;
#X obj 139 143 line;
#X obj 322 141 line;
#X obj 53 94 bng 19 250 50 0 empty empty empty 0 -10 0 12 #fcfcfc #000000 #000000;
#X obj 251 92 bng 19 250 50 0 empty empty empty 0 -10 0 12 #fcfcfc #000000 #000000;
#X obj 252 115 loadbang;
#X msg 252 142 100;
#X msg 133 117 10000 \, 100 1000;
#X msg 322 115 0 \, 8000 1000;
#X obj 267 32 inlet;
#X obj 108 191 outlet;
#X obj 112 40 inlet;
#X obj 285 192 outlet;
#X connect 0 0 1 0;
#X connect 1 0 11 0;
#X connect 2 0 11 0;
#X connect 3 0 13 0;
#X connect 4 0 1 0;
#X connect 5 0 7 0;
#X connect 6 0 7 0;
#X connect 7 0 13 0;
#X connect 8 0 2 0;
#X connect 9 0 3 0;
#X connect 10 0 8 0;
#X connect 10 0 9 0;
#X connect 12 0 4 0;
#X connect 12 0 5 0;
#X restore 288 279 pd EngineEnv;
#X obj 288 253 bng 19 250 50 0 empty empty empty 0 -10 0 12 #fcfcfc #000000 #000000;
#X obj 533 265 bng 19 250 50 0 empty empty empty 0 -10 0 12 #fcfcfc #000000 #000000;
#X msg 248 154 0 \, 1000 5000;
#X obj 248 130 delay 5000;
#X obj 248 177 line;
#X obj 402 225 dac~;
#X obj 519 344 dac~;
#X obj 28 156 inlet;
#X obj 417 32 inlet;
#X obj 492 250 inlet;
#X obj 580 111 delay 800;
#X connect 0 0 9 0;
#X connect 1 0 0 1;
#X connect 2 0 0 0;
#X connect 3 0 4 0;
#X connect 4 0 2 0;
#X connect 6 0 14 0;
#X connect 7 0 15 0;
#X connect 7 0 17 1;
#X connect 7 0 21 0;
#X connect 7 0 13 0;
#X connect 7 0 28 0;
#X connect 8 0 10 0;
#X connect 9 0 5 0;
#X connect 9 0 5 1;
#X connect 10 0 9 0;
#X connect 11 0 10 1;
#X connect 12 0 11 0;
#X connect 13 0 6 0;
#X connect 14 0 2 0;
#X connect 15 0 23 0;
#X connect 15 0 23 1;
#X connect 16 0 24 0;
#X connect 16 1 24 1;
#X connect 17 0 0 2;
#X connect 17 1 0 3;
#X connect 18 0 17 0;
#X connect 19 0 16 1;
#X connect 20 0 22 0;
#X connect 21 0 20 0;
#X connect 22 0 2 0;
#X connect 25 0 2 0;
#X connect 26 0 7 0;
#X connect 27 0 16 0;
#X connect 28 0 8 0;
#X connect 28 0 12 0;
#X connect 28 0 16 2;
#X restore 690 204 pd SFXs;
#X obj 713 174 tgl 19 0 empty empty empty 0 -10 0 12 #fcfcfc #000000 #000000 0 1;
#N canvas 141 43 368 299 python-receive 0;
#X obj 42 131 netreceive -u -b;
#X msg 42 50 listen 0;
#X msg 54 103 listen 5006;
#X text 103 50 (listen 0 to close);
#X obj 54 78 loadbang;
#X text 126 103 <- bang to start listening;
#X obj 42 157 oscparse;
#X obj 42 189 list trim;
#X obj 38 229 outlet;
#X connect 0 0 6 0;
#X connect 1 0 0 0;
#X connect 2 0 0 0;
#X connect 4 0 2 0;
#X connect 6 0 7 0;
#X connect 7 0 8 0;
#X restore 665 45 pd python-receive;
#N canvas 0 38 299 257 landmark19 0;
#X floatatom 67 145 5 0 0 2 x-value - - 0;
#X floatatom 124 147 5 0 0 2 y-value - - 0;
#X floatatom 187 151 5 0 0 2 z-value - - 0;
#X obj 84 94 unpack f f f;
#X obj 84 35 inlet;
#X obj 66 177 outlet;
#X obj 124 177 outlet;
#X obj 187 181 outlet;
#X obj 84 66 route landmark19;
#X connect 0 0 5 0;
#X connect 1 0 6 0;
#X connect 2 0 7 0;
#X connect 3 0 0 0;
#X connect 3 1 1 0;
#X connect 3 2 2 0;
#X connect 4 0 8 0;
#X connect 8 0 3 0;
#X restore 607 106 pd landmark19;
#N canvas 49 49 1907 1069 landmark20 0;
#X floatatom 258 336 5 0 0 2 x-value - - 0;
#X floatatom 315 338 5 0 0 2 y-value - - 0;
#X floatatom 378 342 5 0 0 2 z-value - - 0;
#X obj 274 277 unpack f f f;
#X obj 275 75 inlet;
#X obj 242 387 outlet;
#X obj 312 394 outlet;
#X obj 373 389 outlet;
#X obj 283 171 route landmark20;
#X connect 0 0 5 0;
#X connect 1 0 6 0;
#X connect 2 0 7 0;
#X connect 3 0 0 0;
#X connect 3 1 1 0;
#X connect 3 2 2 0;
#X connect 4 0 8 0;
#X connect 8 0 3 0;
#X restore 734 104 pd landmark20;
#X obj 651 135 * 1000;
#X obj 651 170 + 50;
#X obj 778 132 * 100;
#X text 603 233 inlet 1: engine start sound (50-1000) inlet 2: take off (bang) inlet 3: engine speed (0-100), f 39;
#N canvas 8 46 1074 601 Laser 0;
#X obj 467 306 line;
#X obj 637 87 bng 19 250 50 0 empty empty empty 0 -10 0 12 #fcfcfc #000000 #000000;
#X obj 903 422 lop~;
#X obj 928 394 line;
#X obj 287 181 hsl 162 19 0 5000 0 0 empty empty empty -2 -10 0 12 #fcfcfc #000000 #000000 0 1;
#X obj 263 308 osc~;
#X obj 328 308 phasor~;
#X obj 284 155 line;
#X obj 328 281 + 2;
#X obj 151 309 osc~;
#X obj 196 308 phasor~;
#X obj 154 268 + 30;
#X obj 400 307 phasor~;
#X msg 928 364 10000 \, 500 75;
#X obj 564 280 noise~;
#X obj 620 279 line;
#X msg 283 128 1000 \, 400 300;
#X obj 541 315 hip~;
#X obj 538 350 hip~;
#X msg 620 245 6000 \, 10000 200;
#X obj 88 310 phasor~;
#X obj 21 269 + 200;
#X obj 42 312 osc~;
#X obj 88 269 + 0.75;
#X obj 200 267 + 0.3;
#X obj 903 449 hip~ 500;
#X obj 400 275 - 100;
#X msg 831 364 0 \, 10000 100;
#X obj 928 336 delay 100;
#X obj 637 53 inlet;
#X obj 895 518 dac~;
#X obj 434 383 *~;
#X msg 467 277 0.25 \, 0 230;
#X connect 0 0 31 1;
#X connect 1 0 32 0;
#X connect 1 0 16 0;
#X connect 1 0 19 0;
#X connect 1 0 27 0;
#X connect 1 0 28 0;
#X connect 2 0 25 0;
#X connect 3 0 2 1;
#X connect 4 0 5 0;
#X connect 4 0 8 0;
#X connect 4 0 11 0;
#X connect 4 0 26 0;
#X connect 4 0 21 0;
#X connect 5 0 31 0;
#X connect 6 0 31 0;
#X connect 7 0 4 0;
#X connect 8 0 6 0;
#X connect 9 0 31 0;
#X connect 10 0 31 0;
#X connect 11 0 9 0;
#X connect 11 0 10 0;
#X connect 12 0 31 0;
#X connect 13 0 3 0;
#X connect 14 0 17 0;
#X connect 15 0 17 1;
#X connect 15 0 18 1;
#X connect 16 0 7 0;
#X connect 17 0 18 0;
#X connect 18 0 31 0;
#X connect 19 0 15 0;
#X connect 20 0 31 0;
#X connect 21 0 22 0;
#X connect 21 0 20 0;
#X connect 22 0 31 0;
#X connect 23 0 22 1;
#X connect 23 0 20 1;
#X connect 24 0 9 1;
#X connect 24 0 10 1;
#X connect 25 0 30 0;
#X connect 25 0 30 1;
#X connect 26 0 12 0;
#X connect 27 0 3 0;
#X connect 28 0 13 0;
#X connect 29 0 1 0;
#X connect 31 0 2 0;
#X connect 32 0 0 0;
#X restore 211 227 pd Laser;
#X obj 210 186 bng 19 250 50 0 empty empty empty 0 -10 0 12 #fcfcfc #000000 #000000;
#X text 278 227 inlet 1: laser trigger (bang);
#N canvas 185 70 1273 870 Explosion 1;
#X obj 69 165 noise~;
#X obj 69 216 hip~;
#X obj 69 240 hip~;
#X obj 69 265 hip~;
#X obj 69 397 *~;
#X obj 133 238 line;
#X obj 133 364 line;
#X obj 133 183 r bang1;
#X obj 133 284 r bang1;
#X obj 226 310 delay 3500;
#X obj 118 25 bng 19 250 50 0 empty empty empty 0 -10 0 12 #fcfcfc #000000 #000000;
#X obj 69 63 s bang1;
#X obj 502 793 dac~;
#X obj 337 704 r~ output;
#X obj 437 762 *~;
#X obj 484 760 hsl 162 19 0 1 0 0 empty empty empty -2 -10 0 12 #fcfcfc #000000 #000000 0 1;
#X obj 70 427 s~ output;
#X msg 133 208 20000 \, 2000 5000;
#X obj 532 291 *~;
#X obj 550 247 line;
#X msg 550 206 0 \, 1 3500;
#X obj 633 193 delay 3500;
#X obj 534 139 r bang2;
#X obj 532 320 s~ output1;
#X obj 416 703 r~ output1;
#X obj 140 67 s bang2;
#X msg 133 323 0 \, 0.5 3500;
#X msg 226 336 0.5 \, 0 9000;
#X obj 69 293 hip~;
#X msg 633 219 1 \, 0 12000;
#X obj 439 231 line;
#X obj 440 260 osc~;
#X msg 439 204 40 \, 20 12000;
#X connect 0 0 1 0;
#X connect 1 0 2 0;
#X connect 2 0 3 0;
#X connect 3 0 28 0;
#X connect 4 0 16 0;
#X connect 5 0 1 1;
#X connect 5 0 2 1;
#X connect 5 0 3 1;
#X connect 5 0 28 1;
#X connect 6 0 4 1;
#X connect 7 0 17 0;
#X connect 8 0 26 0;
#X connect 8 0 9 0;
#X connect 9 0 27 0;
#X connect 10 0 11 0;
#X connect 10 0 25 0;
#X connect 13 0 14 0;
#X connect 14 0 12 0;
#X connect 14 0 12 1;
#X connect 15 0 14 1;
#X connect 17 0 5 0;
#X connect 18 0 23 0;
#X connect 19 0 18 1;
#X connect 20 0 19 0;
#X connect 21 0 29 0;
#X connect 22 0 20 0;
#X connect 22 0 21 0;
#X connect 22 0 32 0;
#X connect 24 0 14 0;
#X connect 26 0 6 0;
#X connect 27 0 6 0;
#X connect 28 0 4 0;
#X connect 29 0 19 0;
#X connect 30 0 31 0;
#X connect 31 0 18 0;
#X connect 32 0 30 0;
#X restore 248 72 pd Explosion;
#X connect 0 0 1 0;
#X connect 3 0 2 1;
#X connect 4 0 5 0;
#X connect 4 0 6 0;
#X connect 5 1 7 0;
#X connect 6 1 9 0;
#X connect 7 0 8 0;
#X connect 8 0 2 0;
#X connect 9 0 2 2;
#X connect 12 0 11 0;
