#N canvas 403 78 1113 787 12;
#X obj 4 410 oscparse;
#X floatatom 204 412 4 0 0 0 - - - 0;
#X obj 4 441 list split, f 29;
#X listbox 69 575 15 0 0 0 Value\ X - - 0;
#X text 177 389 split point;
#X obj 17 378 print OSC-packet-2;
#X obj 4 348 netreceive -u -b 3001;
#X text 161 340 receive OSC via UDP \, binary at port 3001, f 20;
#X obj 300 472 print;
#X listbox 254 574 20 0 0 0 Value\ Y - - 0;
#X obj 68 637 hsl 162 19 0 255 0 0 empty empty empty -2 -10 0 12 #fcfcfc #000000 #000000 0 1;
#X obj 286 637 hsl 162 19 0 255 0 0 empty empty empty -2 -10 0 12 #fcfcfc #000000 #000000 0 1;
#X listbox 2 683 20 0 0 0 - - - 0;
#X obj 72 510 unpack f f;
#X obj 4 491 unpack s;
#X obj 537 387 oscparse;
#X floatatom 737 389 4 0 0 0 - - - 0;
#X obj 537 418 list split, f 29;
#X listbox 669 550 15 0 0 0 Distancesensor - - 0;
#X text 710 366 split point;
#X obj 550 355 print OSC-packet-2;
#X obj 833 449 print;
#X obj 668 612 hsl 162 19 0 255 0 0 empty empty empty -2 -10 0 12 #fcfcfc #000000 #000000 0 1;
#X listbox 542 643 20 0 0 0 - - - 0;
#X obj 540 465 unpack s;
#X obj 537 325 netreceive -u -b 3002;
#X text 694 317 receive OSC via UDP \, binary at port 3002, f 20;
#X obj 998 381 oscparse;
#X floatatom 1198 383 4 0 0 0 - - - 0;
#X obj 998 412 list split, f 29;
#X listbox 1063 546 15 0 0 0 Value\ X - - 0;
#X text 1171 360 split point;
#X obj 1011 349 print OSC-packet-2;
#X obj 1294 443 print;
#X listbox 1248 545 20 0 0 0 Value\ Y - - 0;
#X obj 1062 608 hsl 162 19 0 255 0 0 empty empty empty -2 -10 0 12 #fcfcfc #000000 #000000 0 1;
#X obj 1280 608 hsl 162 19 0 255 0 0 empty empty empty -2 -10 0 12 #fcfcfc #000000 #000000 0 1;
#X listbox 1007 725 20 0 0 0 - - - 0;
#X obj 1066 481 unpack f f;
#X listbox 1203 726 20 0 0 0 - - - 0;
#X obj 1011 652 unpack s;
#X text 1155 311 receive OSC via UDP \, binary at port 3003, f 20;
#X obj 998 319 netreceive -u -b 3003;
#X obj 672 485 unpack f;
#X connect 0 0 2 0;
#X connect 0 0 8 0;
#X connect 0 1 1 0;
#X connect 1 0 2 1;
#X connect 2 0 14 0;
#X connect 2 1 13 0;
#X connect 3 0 10 0;
#X connect 6 0 0 0;
#X connect 6 0 5 0;
#X connect 9 0 11 0;
#X connect 13 0 3 0;
#X connect 13 1 9 0;
#X connect 14 0 12 0;
#X connect 15 0 17 0;
#X connect 15 0 21 0;
#X connect 15 1 16 0;
#X connect 16 0 17 1;
#X connect 17 0 24 0;
#X connect 17 1 43 0;
#X connect 18 0 22 0;
#X connect 24 0 23 0;
#X connect 25 0 15 0;
#X connect 25 0 20 0;
#X connect 27 0 29 0;
#X connect 27 0 33 0;
#X connect 27 1 28 0;
#X connect 28 0 29 1;
#X connect 29 0 40 0;
#X connect 29 1 38 0;
#X connect 30 0 35 0;
#X connect 34 0 36 0;
#X connect 38 0 30 0;
#X connect 38 1 34 0;
#X connect 40 0 37 0;
#X connect 42 0 27 0;
#X connect 42 0 32 0;
#X connect 43 0 18 0;
