#N canvas 824 142 1113 787 12;
#X obj 4 410 oscparse;
#X floatatom 204 412 4 0 0 0 - - - 0;
#X obj 4 441 list split, f 29;
#X listbox 69 575 15 0 0 0 Value\ X - - 0;
#X text 177 389 split point;
#X obj 17 378 print OSC-packet-2;
#X obj 4 348 netreceive -u -b 3001;
#X text 161 340 receive OSC via UDP \, binary at port 3001, f 20;
#X listbox 557 636 20 0 0 0 - - - 0;
#X obj 300 472 print;
#X obj 557 576 unpack s;
#X listbox 254 574 20 0 0 0 Value\ Y - - 0;
#X obj 68 637 hsl 162 19 0 255 0 0 empty empty empty -2 -10 0 12 #fcfcfc #000000 #000000 0 1;
#X obj 286 637 hsl 162 19 0 255 0 0 empty empty empty -2 -10 0 12 #fcfcfc #000000 #000000 0 1;
#X listbox 14 736 20 0 0 0 - - - 0;
#X obj 17 681 unpack s;
#X obj 72 510 unpack f f;
#X connect 0 0 2 0;
#X connect 0 0 9 0;
#X connect 0 1 1 0;
#X connect 1 0 2 1;
#X connect 2 0 15 0;
#X connect 2 1 16 0;
#X connect 3 0 12 0;
#X connect 6 0 0 0;
#X connect 6 0 5 0;
#X connect 11 0 13 0;
#X connect 15 0 14 0;
#X connect 16 0 3 0;
#X connect 16 1 11 0;
